<?xml version="1.0" encoding="utf-8"?>
<svg version="1.1" xmlns="http://www.w3.org/2000/svg" xmlns:xlink="http://www.w3.org/1999/xlink" x="0px"
	 y="0px" viewBox="0 0 2152 820" xml:space="preserve">
<g id="sharapov_logo"><path fill="#333" d="M460.84,393.57h-0.02C460.45,395.05,460.47,394.98,460.84,393.57z M829.97,818.5c-0.64-0.23-0.99-0.41-0.99-0.41
			C829.12,819.15,829.46,819.25,829.97,818.5z M531.26,120.34c0.04-0.16,0.09-0.32,0.14-0.48
			C531.4,119.82,531.36,119.97,531.26,120.34z M995.93,346.67c0,0,0,0.01,0,0.01C996.49,346.51,996.4,346.52,995.93,346.67z
			 M2127.3,218.69c-56.45,128.2-166.51,150.99-244.1,152.9c4.23-26.49-2-50.8-24.01-61.01c-7.46-3.19-36.18-12.95-64.67,13.5
			c-21.39,19.86-24.39,53.32-15.61,69.25c9.68,14.99,29.04,6.11,28.17,1.19c0,0-3.99,2.89-5.71-6.72
			c-2.67-14.86,31.77-67.32,48.4-57.2c5.76,3.5,6.52,13.51,3.25,27.65c-1.6,4.87-3.24,9.58-4.9,14.14
			c-63.39,4.48-40.85,29.8-33.49,15.12c4.72-6.03,9.8-7.79,29.83-5.46c-46.11,117.02-111.16,120.12-64.37-46.88
			c0.93-3.3,1.87-6.54,2.82-9.72c344.69-260.63,45.23-564.24-45.75-17.39c0,0,9.62-5.94,20-11l-31.29,20.22
			c19.89-84.25,0.59-139.57-27.26-150.67c-61.88-24.67-112.86,68.53-142.49,162.15c-3.21,10.14-5.93,19.89-8.2,29.27
			c2.94,1.55,5.84,3.25,8.21,5.03c9.37,7.03,12,15,12,15s-6.75-11.07-21.74-13.55c-0.02,0.08-0.04,0.16-0.06,0.24
			c-11.59-1.26-22.3,4.54-23.38,10.47c17.73-14,24.53,32.9,6.87,70.75c-9.09,19.49-23.26,32.73-38.17,31.92
			c-18.85-1.02-16.18-28.89,3.25-105.08l44.73-176.61c0,0-0.13-0.02-0.37-0.06c0.39-0.25,0.59-0.38,0.59-0.38
			s-2.4-11.19-15.73-22.71c-15.99-13.82-30.01-11-30.01-11c-21.16,32.36-44.71,53.82-72.86,62.17c0.4-1.52,0.78-2.96,1.14-4.31
			c10.9-41.02-32.68-43.19-32.68-43.19s-43.9,172.16-66.21,258.07c2.42,0.66,5.41,1.92,8.5,4.3c7.36,5.67,8.09,15.99,8.09,15.99
			s-2.39-7.25-9.74-11.4c-13.26-7.49-20.95-0.11-21.13,0.89c0,0,5.78-1.6,3.68,10.1c-1.92,10.76-10.53,22.65-18.77,24.23
			c-18.54,3.54-16.18-28.89,3.25-105.08l28.21-109.76c0,0-0.18-0.01-0.5,0l0,0c0,0-4.98,0.42-15,3c-9.36,2.42-14,7-14,7
			s4.66-7.29,11.16-11.42c2.35-1.5,4.17-2.5,5.6-3.19c1.58-51.43-14.46-84.52-35.31-92.83c-61.88-24.67-112.86,68.53-142.49,162.15
			c-46.78,147.79,8.43,216.58,74.35,165.02c1.48-1.23,14.3-12.51,24.61-24.69c9.76-11.53,17.07-24.01,17.07-24.01
			s-3.35,7.25-8.35,16.2c0.36,2.7,0.83,5.22,1.43,7.52c9.11,34.84,31.39,42.27,53.37,42.27c13.86,0,32.57-15.99,32.57-15.99
			s-2.33,3.56-6.6,7.68c10.13,7.93,23.94,8.65,23.94,8.65s42.88-168.17,65.42-255.03c-0.09-0.05-0.18-0.1-0.27-0.15
			c-7.74-4.61-11.6-9.93-11.6-9.93s5.33,4.49,12.53,7.51c0-0.02,0.01-0.04,0.01-0.05c24.38,8.12,54.15-12.95,60.97-17.01
			c-27.16,149.19-77.77,268.53,20.55,273.32c21.4,1.04,48.64-20.01,55-25.89c0.02,0.03,0.03,0.06,0.05,0.09
			c5.85-5.41,9.03-10.19,9.03-10.19s-1.23,5.66-7.9,12.28c29.22,52.03,103.53,23.99,157.27-113.9c0.05-0.13,0.1-0.26,0.15-0.4
			c-3.49,0.45-7.42,0.32-11.49-1c-11.88-3.87-14.11-10.64-14.11-10.64s8.48,10.03,22.15,6.77c1.68-0.4,13.3-2.74,24.12-10.68
			c-0.02,0.1-0.04,0.19-0.07,0.28l-0.09,0.27l0.03-0.01c-38.4,156.35,47.91,206.49,123.66,89.13c5.9-9.15,19.55-32.98,26.84-58.87
			c0.71,0.12,1.39,0.23,2.12,0.35C2104.55,424.27,2199.25,267.78,2127.3,218.69z M1878.7,54.93
			c41.47-29.4,20.66,131.34-88.54,218.13C1832.68,94.91,1870.62,60.66,1878.7,54.93z M1258.25,333.82
			c-44.32,161.96-132.85,188.91-80.29,1.36C1224.53,168.97,1308.71,149.42,1258.25,333.82z M1679.34,333.82
			c-44.32,161.96-132.85,188.91-80.29,1.36C1645.62,168.97,1729.8,149.42,1679.34,333.82z M1098.6,166.62
			c-61.88-24.67-112.86,68.53-142.49,162.15c-2.53,8-14.26,53.48-28.97,111.43c6.33,5.95,7.85,14.88,7.85,14.88
			s-3.39-7.25-10.74-11.4c-12.32-6.96-20.34-0.7-20.63,0.89c0,0,5.78-1.6,3.68,10.1c-1.92,10.76-10.53,22.65-18.77,24.23
			c-18.54,3.54-16.18-28.89,3.25-105.08l28.21-109.76c0,0-4.98,0.42-15,3c-9.36,2.42-14,7-14,7s4.66-7.29,11.16-11.42
			c2.08-1.32,3.75-2.26,5.09-2.94c1.64-51.57-14.42-84.76-35.3-93.08c-61.88-24.67-112.86,68.53-142.49,162.15
			c-12.66,40-17.85,74.2-17.38,101.81c0.96,0.77,1.96,1.62,2.98,2.57c5.12,4.78,7.11,11.5,7.7,13.97
			c-7.75-17.82-31.72-15.55-32.8-9.54c0,0,6.27-1.75,4,11c-2.09,11.73-11.43,24.69-20.39,26.4c-20.14,3.86-29.52-31.48-8.42-114.5
			l32.54-128.92h0.2l20.83-82.52c0,0-53.32-25.6-66.77,30.52c5.38-22.43-48.02,183.67-50.48,203.43
			c-41.34,112.14-101.18,129.81-79.02,9.84l40.57-161.27h0.22l34.7-137.94c0,0-52.88-22.26-66.53,26.24
			c-7.86,32.57-65.95,256.28-70.55,273.71h0.51c-44.55,111.25-105.9,116.87-67.78-33.1L483.41,6.11c0,0-0.3-0.12-0.84-0.33
			c-2.65-5.48-19.79-7.05-38.68-4.75c-0.57,0.07-63.04,28.14-156.03,92.01C-138.37,385.78-2.42,544.69,134.91,529.16
			C87.43,513.06-43.26,354.31,395.46,63.02c15.47-11.56,43.43-27.98,43.43-27.98s-15.34,10.98-28.34,21.17
			c-19.83,74.21-70.54,264.88-77.52,305.73c-12.92,75.58-8.3,146.65,60.71,148.1c39.59,0.83,62.46-21.89,75.18-45.52
			c8.27,26.99,26.65,44.8,60.85,45.52c39.26,0.83,62.08-21.52,74.86-44.94c8.36,26.66,26.72,44.22,60.67,44.94
			c15.05,0.32,38.03-4.35,50.71-21.46c-0.39,0.75,2.69-3.86,4.99-9.49c2.34-5.72,3.91-12.47,3.91-12.47s0.23,7.43-2.53,15.53
			c15.61,32.67,47.05,38.5,81.4,11.64c1.56-1.3,14.63-13.2,25.21-25.7c9.38-11.09,16.48-23.01,16.48-23.01s-3.35,7.25-8.35,16.2
			c0.36,2.7,0.83,5.22,1.43,7.52c9.11,34.84,31.39,42.27,53.37,42.27c2.23,0,8.86-1.17,16.33-4.59
			c10.11-5.16,15.74-11.39,15.74-11.39s-5.14,7.87-14.18,13.73c-3.87,15.35-7.77,30.88-11.62,46.25
			c-16.17,64.45-60.79,252.68-68.21,263.44c4.04,1.44,20.03,4.67,38.51-24.41c32.22-50.69,80.08-252,80.08-252l10.42-42
			c0,0-2.06-1.58-4-5c-1.73-3.06-3.36-8-3.36-8c6.73,11.65,15.77,19.17,26.36,22.19v-0.01c35.8,10.22,89.22-30.87,130.5-136.79
			C1153.3,257.5,1132.15,179.99,1098.6,166.62z M852.67,333.82c-44.32,161.96-132.85,188.91-80.29,1.36
			C818.95,168.97,903.13,149.42,852.67,333.82z M1079.34,333.82c-26.25,95.92-65.69,141.1-86.77,129.18
			c-17.52-9.91-19.41-38.3-14.92-55.41c6.96-26.48,25.81-44.48,42.1-40.2c0.12,0.03,0.24,0.08,0.36,0.11
			c-13.14-29.03-36.13-10.41-36.13-10.41c-0.23-0.08,1.08-5.42,6.01-8c2.2-1.15,4.95-2.1,5.94-2.42c0.98-3.74,2.01-7.57,3.11-11.5
			C1045.62,168.97,1129.8,149.42,1079.34,333.82z"/></g>
</svg>
