<?xml version="1.0" encoding="utf-8"?>
<svg width="59.000214px" height="19px" viewBox="0 0 59.000214 19" version="1.1"
  xmlns:xlink="http://www.w3.org/1999/xlink" xmlns="http://www.w3.org/2000/svg">
  <g id="AEthing" fill-opacity="1">
    <path d="M-255 650L-255 650L-255 669L-314 669L-314 650L-255 650Z" id="AEthing" fill="none" stroke="none" />
    <path
      d="M6.74476 0L0 15L3.29712 15L4.94568 11.5674L9.34183 10.4195L9.34183 15L18 15L18 12L12.6389 12L12.639 8.99033L15.824 9L16.6862 6L12.6389 5.99035L12.6389 3L17.5829 3L18.6837 0L6.74476 0L6.74476 0ZM9.34182 2.35797L9.34182 10.1782L6.74475 7.94642L9.34182 2.35797L9.34182 2.35797ZM22.7884 15C21.8931 15 21.2269 14.7667 20.7898 14.3001C20.3526 13.8334 20.1341 13.1335 20.1341 12.2003L20.1341 6.78474L18.6234 6.78474L18.6234 4.31202L20.1341 4.31202L20.1341 1.32838L22.9982 0L22.9982 4.31202L25.3587 4.31202L25.3587 6.78474L22.9982 6.78474L22.9982 11.7813C22.9982 12.047 23.0594 12.2462 23.1818 12.3791C23.3042 12.5119 23.4948 12.5784 23.7536 12.5784C24.2781 12.5784 24.8551 12.4319 25.4846 12.139L25.1594 14.53C24.8307 14.6799 24.4704 14.7956 24.0788 14.8773C23.6871 14.9591 23.257 15 22.7884 15L22.7884 15ZM26.4648 15L26.4648 1.30883L29.1394 0L29.1394 5.38088C29.4572 4.96539 29.8413 4.65373 30.292 4.44598C30.7426 4.23826 31.2565 4.13439 31.8336 4.13439C32.5663 4.13439 33.1887 4.29886 33.701 4.62781C34.2132 4.95672 34.6055 5.4259 34.8778 6.03534C35.1502 6.64477 35.2863 7.3684 35.2863 8.20637L35.2863 15L32.6116 15L32.6116 9.38023C32.6116 8.50072 32.4852 7.8636 32.2323 7.46886C31.9795 7.07412 31.5515 6.87676 30.9485 6.87676C30.326 6.87676 29.8689 7.07586 29.5771 7.47408C29.2853 7.87224 29.1394 8.49377 29.1394 9.33867L29.1394 15L26.4648 15L26.4648 15ZM36.442 4.55382C36.7367 4.85127 37.0878 5 37.4953 5C37.9154 5 38.2711 4.85284 38.5627 4.55852C38.8542 4.26425 39 3.90825 39 3.49054C39 3.06646 38.8574 2.71204 38.5721 2.42725C38.2868 2.14242 37.9279 2 37.4953 2C37.0815 2 36.7289 2.14557 36.4373 2.43671C36.1458 2.72785 36 3.07913 36 3.49054C36 3.9019 36.1473 4.25633 36.442 4.55382L36.442 4.55382ZM40 15L40 4.25239L42.7201 4.25239L42.7201 5.26197C43.0433 4.84127 43.434 4.52583 43.8923 4.31551C44.3505 4.10517 44.8731 4 45.46 4C46.5613 4 47.4218 4.36282 48.0417 5.08845C48.6615 5.81404 48.9715 6.82533 48.9715 8.12239L48.9715 15L46.2513 15L46.2513 9.31069C46.2513 8.41329 46.1194 7.76658 45.8557 7.37048C45.5919 6.97434 45.16 6.77626 44.5599 6.77626C43.9269 6.77626 43.462 6.97783 43.1652 7.38097C42.8685 7.7841 42.7201 8.41332 42.7201 9.26861L42.7201 15L40 15L40 15ZM52.6894 16.6155L54.2324 19C55.1425 18.9117 55.9041 18.7606 56.5174 18.5465C57.1307 18.3326 57.6187 18.0183 57.9814 17.604C58.344 17.1895 58.6045 16.6477 58.7628 15.9787C58.9211 15.3095 59.0002 14.4857 59.0002 13.5075L59.0002 4.24457L56.28 4.24457L56.28 4.74387C56.0558 4.4993 55.7706 4.31423 55.4244 4.18852C55.0782 4.06282 54.6907 4 54.2621 4C53.4048 4 52.6564 4.22589 52.0167 4.67766C51.3771 5.12942 50.8792 5.76292 50.5231 6.5781C50.167 7.39336 49.989 8.34786 49.989 9.44162C49.989 10.5829 50.1587 11.5611 50.4984 12.3764C50.838 13.1916 51.3243 13.8166 51.9574 14.2514C52.5904 14.6862 53.3554 14.9035 54.2522 14.9035C55.1227 14.9035 55.7986 14.6624 56.28 14.1801L56.28 14.7201C56.28 15.1413 56.186 15.4759 55.9981 15.7239C55.8101 15.9718 55.4574 16.1637 54.9397 16.2996C54.422 16.4354 53.6719 16.5408 52.6894 16.6155L52.6894 16.6155ZM55.5578 12.0146C55.2874 12.1471 54.9907 12.2133 54.6676 12.2133C54.2455 12.2133 53.8894 12.1046 53.5993 11.8872C53.3091 11.6698 53.0882 11.3573 52.9366 10.9497C52.7849 10.5421 52.709 10.0394 52.709 9.44154C52.709 8.54481 52.8805 7.86203 53.2234 7.39328C53.5663 6.92453 54.0642 6.69019 54.717 6.69019C55.0204 6.69019 55.3138 6.76153 55.5974 6.90421C55.8809 7.04685 56.1084 7.23026 56.2799 7.45444L56.2799 11.4592C56.0689 11.697 55.8282 11.8821 55.5578 12.0146L55.5578 12.0146ZM37.4945 5.79497C37.0218 5.79497 36.6145 5.63629 36.2727 5.31894C36.1648 5.21869 36.0739 5.11238 36 5L36 15L39 15L39 5.01065C38.9274 5.12152 38.8383 5.22595 38.7327 5.32395C38.3945 5.63796 37.9818 5.79497 37.4945 5.79497L37.4945 5.79497Z"
      id="AEthing" fill="currentColor" fill-rule="evenodd" stroke="none" />
  </g>
</svg>
