<?xml version="1.0" encoding="utf-8"?>
<svg width="59px" height="20px" viewBox="0 0 59 20" version="1.1" xmlns:xlink="http://www.w3.org/1999/xlink"
  xmlns="http://www.w3.org/2000/svg">
  <g id="AZART" fill-opacity="1">
    <path d="M-255 650L-255 650L-255 670L-314 670L-314 650L-255 650Z" id="AZART" fill="none" stroke="none" />
    <g id="AZART">
      <path
        d="M59 0L0 0L0 19.9992L59 19.9992L59 0ZM26 2.30768L3 2.30768L3 17.6917L26 17.6917L26 2.30768ZM32.2139 4.61536L29 15.3842L31.7548 15.3842L32.2029 13.8827L34.9796 13.8827L35.4277 15.3842L38.1825 15.3842L34.9686 4.61536L32.2139 4.61536ZM46.3463 6.15377C46.3463 5.30401 45.4067 4.61536 44.2473 4.61536L39 4.61536L39 15.3841L41.7549 15.3841L41.7549 10.7689L45.2161 15.3841L48.1828 15.3841L44.8318 10.9159L44.2473 10.7689C45.4067 10.7689 46.3463 10.0803 46.3463 9.23055L46.3463 6.15377ZM49.7547 6.92294L47 6.92294L47 4.61536L55.2642 4.61536L55.2642 6.92294L52.5095 6.92294L52.5095 15.3842L49.7547 15.3842L49.7547 6.92294ZM41.6948 8.89467L42.8728 8.89467C43.2402 8.89467 43.538 8.64263 43.538 8.33162L43.538 7.20551C43.538 6.8945 43.2402 6.64246 42.8728 6.64246L41.6948 6.64246L41.6948 8.89467ZM33 11.6306L34.4324 11.6306L33.7162 9.23077L33 11.6306Z"
        id="Rectangle-2-Subtract" fill="currentColor" fill-rule="evenodd" stroke="none" />
      <path
        d="M6 15.3818L9.30421 4.61536L12.1364 4.61536L15.4406 15.3818L12.6084 15.3818L12.1476 13.8804L9.29299 13.8804L8.83219 15.3818L6 15.3818L6 15.3818ZM11.4563 11.6284L10.7202 9.2298L9.98404 11.6284L11.4563 11.6284L11.4563 11.6284ZM22.0802 4.61536L15 4.61536L15 6.92248L18.5401 6.92248L15.944 15.3819L22.5522 15.3819L22.5522 13.0748L19.4841 13.0748L22.0802 4.61536L22.0802 4.61536Z"
        id="Vector" fill="currentColor" fill-rule="evenodd" stroke="none" />
    </g>
  </g>
</svg>
