<?xml version="1.0" encoding="utf-8"?>
<svg width="118px" height="20px" viewBox="0 0 59 11" version="1.1" xmlns:xlink="http://www.w3.org/1999/xlink"
  xmlns="http://www.w3.org/2000/svg">
  <g id="iTechArt">
    <path d="M-255 650L-255 650L-255 661L-314 661L-314 650L-255 650Z" id="iTechArt" fill="none" stroke="none" />
    <path
      d="M6.41776 1.94642L6.41776 0L10.1433 0.00562564L13.8689 0.0112725L13.9912 0.0670005C14.1631 0.145379 14.2811 0.257258 14.3636 0.420149L14.4345 0.560116L14.4411 1.2531L14.4476 1.94612L12.9944 1.95156L11.5411 1.95699L11.5356 6.47762L11.5301 10.9982L9.3112 10.9982L9.3112 1.94642L6.41776 1.94642L6.41776 1.94642ZM3.25589 0.441081C3.35001 0.243104 3.56319 0.0732766 3.77987 0.0236393C3.82479 0.0133397 4.2213 0.00397065 4.66104 0.0027863L5.46054 0.000671387L5.46054 1.94639L3.19583 1.94639L3.20236 1.24318C3.20856 0.574339 3.21119 0.535152 3.25589 0.441081L3.25589 0.441081ZM29.8916 10.9982L29.8916 0.000671387L30.6158 0.000671387C31.5174 0.000671387 31.5722 0.0108653 31.8024 0.221193C31.8543 0.268567 31.9228 0.354919 31.9547 0.413079L32.0127 0.518825L32.0236 2.06023L32.0345 3.60165L32.1538 3.42436C32.4727 2.95023 33.0119 2.57124 33.59 2.41484C34.443 2.18411 35.3265 2.31568 36.0646 2.78339C36.9302 3.33189 37.4249 4.07681 37.6014 5.09761C37.6702 5.49591 37.6795 5.89371 37.6798 8.44444L37.6799 10.9982L35.5712 10.9982L35.5642 8.51851C35.5565 5.78255 35.5607 5.86933 35.417 5.45271C35.1969 4.81381 34.7498 4.37376 34.2072 4.26203C34.0087 4.22113 33.6275 4.22202 33.4311 4.26383C33.345 4.28216 33.1815 4.3411 33.0678 4.3948C32.8937 4.47705 32.8321 4.52106 32.6762 4.67416C32.3097 5.0344 32.1138 5.51131 32.0462 6.20795C32.0322 6.35189 32.0236 7.30945 32.0236 8.71938L32.0236 10.9982L29.8916 10.9982L29.8916 10.9982ZM54.3518 7.74126C54.3157 7.53481 54.3125 7.25511 54.3065 3.75993L54.2999 0.000671387L55.0564 0.000925177C55.9008 0.00120012 55.9653 0.00908871 56.1621 0.136089C56.285 0.215398 56.3899 0.345402 56.4495 0.492156C56.4814 0.570873 56.487 0.703288 56.4933 1.53927L56.5006 2.49627L59 2.49627L59 3.30829C59 4.07116 58.9972 4.12892 58.9546 4.26283C58.9165 4.38226 58.8876 4.42676 58.7751 4.53741C58.7168 4.59489 58.6745 4.63747 58.6252 4.66902C58.4816 4.76093 58.2781 4.75923 57.4424 4.75923L56.4959 4.75923L56.5032 6.16036L56.5105 7.56151L56.569 7.77023C56.6582 8.08846 56.7612 8.27308 56.9546 8.46091C57.301 8.79776 57.6911 8.90268 58.6031 8.90389L59 8.90445L59 11L58.092 10.9938L57.1834 10.9876L56.8864 10.889C56.3256 10.7029 55.8803 10.4512 55.5172 10.1152C54.8925 9.53731 54.5408 8.82081 54.3518 7.74126L54.3518 7.74126ZM41.889 0.466804C42.0373 0.238308 42.2781 0.0798381 42.564 0.0225238C42.6118 0.0129221 43.0905 0.00645047 43.6278 0.00814242L44.6046 0.0112302L44.6317 0.0852519C44.6633 0.17152 46.8601 6.33469 47.8415 9.09038C48.2113 10.1291 48.514 10.9832 48.514 10.9885C48.514 10.9938 47.9877 10.9982 47.3443 10.9982L46.1746 10.9982L45.8166 9.86674L45.4586 8.73523L41.249 8.73523L41.2154 8.84628C41.1969 8.90736 41.0423 9.41413 40.8719 9.97248L40.562 10.9876L39.3929 10.9931C38.7143 10.9963 38.2238 10.9906 38.2238 10.9796C38.2238 10.961 38.4993 10.1632 40.6236 4.02956C41.7876 0.668745 41.8202 0.570857 41.8751 0.487689C41.8794 0.48116 41.8838 0.474722 41.889 0.466804L41.889 0.466804ZM44.8504 6.86363L44.1062 4.55145C43.6968 3.27975 43.3581 2.23558 43.3535 2.23103C43.3479 2.22925 43.0087 3.26701 42.599 4.53955C42.1887 5.81376 41.8572 6.86036 41.8624 6.86539C41.8675 6.87037 42.5419 6.87203 43.3611 6.86904L44.8504 6.86363L44.8504 6.86363ZM23.4943 2.68984C23.8696 2.50257 24.2203 2.39756 24.6703 2.33775C24.9223 2.30427 25.5456 2.29861 25.8125 2.32739C26.7332 2.42669 27.4596 2.73988 28.0209 3.2795C28.247 3.49681 28.4687 3.81448 28.6627 4.19877C28.7833 4.43774 28.9405 4.83621 28.9859 5.0183L29.0005 5.07647L26.8013 5.07647L26.7799 5.02171C26.736 4.90943 26.5527 4.65991 26.4239 4.53716C26.1829 4.30733 25.8586 4.18192 25.4378 4.15591C24.8651 4.1205 24.3472 4.36073 24.0724 4.78934C23.8034 5.20896 23.6775 5.73507 23.6539 6.53856C23.6284 7.40629 23.7406 8.05613 24.0024 8.55549C24.1237 8.78705 24.379 9.03606 24.6062 9.14457C24.8737 9.27226 25.0869 9.31361 25.4092 9.30034C25.7221 9.28746 25.8761 9.2528 26.1062 9.14363C26.271 9.06542 26.3314 9.01285 26.7154 8.61398C26.9397 8.38088 26.8949 8.38878 28.0377 8.3806L29.001 8.37369L28.9872 8.43289C28.9089 8.76897 28.6062 9.42035 28.3652 9.77146C28.0005 10.3026 27.4573 10.6977 26.7649 10.9353L26.5813 10.9982L24.042 10.9982L23.883 10.9427C23.45 10.7914 23.0468 10.5409 22.7125 10.2152C22.0203 9.54107 21.645 8.64521 21.5365 7.40834C21.5028 7.02345 21.5215 6.04594 21.5688 5.72152C21.7235 4.66002 22.0643 3.90311 22.6575 3.30349C22.9293 3.0287 23.1722 2.85058 23.4943 2.68984L23.4943 2.68984ZM14.3743 3.19212C14.8979 2.70381 15.5624 2.41605 16.3708 2.32767C16.6202 2.30041 17.3753 2.3183 17.6313 2.35755C18.2862 2.45795 18.8244 2.67051 19.2935 3.01404C19.9412 3.48839 20.3 4.09884 20.5367 5.12933C20.6506 5.62567 20.7188 6.21066 20.7454 6.92174L20.7602 7.31829L15.3374 7.31829L15.3374 7.40181C15.3374 7.54459 15.4 7.95585 15.4464 8.11825C15.6149 8.70739 16.0268 9.12588 16.5672 9.25689C16.7811 9.30874 17.2955 9.3084 17.4912 9.25628C17.8201 9.16867 18.0957 8.99267 18.3068 8.73552C18.3744 8.65305 18.4805 8.55305 18.5424 8.51326C18.7449 8.38319 18.8126 8.37573 19.7892 8.37573L20.6641 8.37573L20.6203 8.52906C20.5506 8.77344 20.3656 9.20797 20.2415 9.41874C19.959 9.89843 19.5637 10.2997 19.0924 10.5851C18.8919 10.7065 18.5253 10.8755 18.314 10.9441L18.147 10.9982L15.688 10.9982L15.529 10.9427C15.4416 10.9121 15.2819 10.8445 15.1743 10.7924C14.1883 10.3152 13.5045 9.36728 13.2493 8.124C13.1451 7.61612 13.1292 7.42719 13.1292 6.69439C13.1292 5.97994 13.1437 5.80112 13.2398 5.32473C13.4238 4.41263 13.7765 3.74967 14.3743 3.19212L14.3743 3.19212ZM50.9836 2.98837C51.4608 2.7559 52.2209 2.56582 52.865 2.51783C52.9787 2.50937 53.2014 2.50104 53.36 2.49934L53.6482 2.49628L53.6482 4.7538L53.0989 4.76573C52.5198 4.77831 52.3639 4.79802 52.0984 4.89218C51.6918 5.03635 51.4043 5.32603 51.2675 5.72944C51.2504 5.77977 51.2357 5.82257 51.2231 5.86597C51.1456 6.13308 51.1464 6.42293 51.1464 8.63228L51.1464 10.9982L48.9476 10.9982L48.955 8.5608C48.9613 6.45907 48.9577 6.08972 49.0306 5.73615C49.0515 5.63467 49.0787 5.53449 49.1143 5.39502C49.2424 4.89273 49.404 4.51164 49.6389 4.15771C49.959 3.67543 50.4505 3.24798 50.9836 2.98837L50.9836 2.98837ZM3.198 10.9983L3.198 2.87701L5.46053 2.87701L5.46053 10.9983L3.198 10.9983L3.198 10.9983ZM0.0517338 3.30915C0.148435 3.10726 0.323347 2.96345 0.542334 2.90575C0.614412 2.88678 0.863331 2.88067 1.44672 2.88355L2.25166 2.88755L2.25727 4.05603L2.26291 5.22452L0 5.22452L0.000217552 4.3204L0.000435103 3.41627L0.0517338 3.30915L0.0517338 3.30915ZM18.4145 5.21166C18.2505 4.66182 17.9052 4.32872 17.3766 4.21071C17.0655 4.14124 16.7217 4.14469 16.4537 4.21996C16.0894 4.32223 15.7262 4.61822 15.5583 4.94958C15.4533 5.15688 15.3697 5.45652 15.3474 5.70633L15.3318 5.88012L16.9336 5.88012C18.1028 5.88012 18.5354 5.87371 18.5354 5.85641C18.5354 5.76868 18.4588 5.36055 18.4145 5.21166L18.4145 5.21166ZM0 10.9986L0 8.62915L1.12583 8.63462L2.25166 8.64015L2.25166 10.9877L1.12583 10.9932L0 10.9986L0 10.9986Z"
      id="Vector" fill="currentColor" fill-rule="evenodd" stroke="none" />
  </g>
</svg>
