<?xml version="1.0" encoding="utf-8"?>
<svg width="59px" height="30px" viewBox="0 0 59 30" version="1.1" xmlns:xlink="http://www.w3.org/1999/xlink"
  xmlns="http://www.w3.org/2000/svg">
  <g id="PrimeCT" fill-opacity="1">
    <path d="M-255 650L-255 650L-255 680L-314 680L-314 650L-255 650Z" id="PrimeCT" fill="none" stroke="none" />
    <g id="PrimeCT">
      <path
        d="M31 7.23877L32.484 10.1561L32.484 21L34.9705 21L34.9705 15.0507L34.9691 15.0416L38 21L43.182 13.1794L42.963 15.0676L42.963 21L45.5917 21L45.5917 9.54272L51.9147 0L38 14.5L31 7.23877L31 7.23877ZM0 5.75507L0 30L59 30L59 5.75507L48.5 5.75507L48 6.62097L58.1324 6.62097L58.1324 22.7673L0.867646 22.7673L0.867645 6.62097L45.1177 6.62097L45.9853 5.75507L0 5.75507L0 5.75507ZM3 9.28735C3.53284 9.19718 4.12488 9.12675 4.77612 9.07605C5.42737 9.02533 6.07858 9 6.72983 9C7.39291 9 8.06192 9.04791 8.73685 9.14368C9.41177 9.23944 10.0186 9.43097 10.5573 9.71832C11.0961 10.0056 11.5372 10.4056 11.8806 10.9183C12.2239 11.431 12.3956 12.1099 12.3956 12.9549C12.3956 13.6985 12.2476 14.3324 11.9516 14.8563C11.6556 15.3802 11.2619 15.8056 10.7705 16.1324C10.2791 16.4591 9.71964 16.6985 9.09207 16.8507C8.46451 17.0028 7.81918 17.0789 7.1561 17.0789L6.85416 17.0789C6.71207 17.0789 6.5611 17.076 6.40125 17.0704C6.24139 17.0648 6.09042 17.0563 5.94833 17.045C5.80624 17.0338 5.69968 17.0225 5.62866 17.0112L5.62866 21L3 21L3 9.28735L3 9.28735ZM14.0121 9.28735C14.2963 9.24225 14.6071 9.20001 14.9445 9.16058C15.282 9.12115 15.6224 9.09015 15.9658 9.06763C16.3092 9.04504 16.6437 9.0282 16.9693 9.01691C17.295 9.00564 17.5939 9 17.8663 9C18.4938 9 19.1125 9.05072 19.7223 9.1521C20.3321 9.25354 20.8768 9.42816 21.3563 9.67603C21.8359 9.92395 22.2236 10.2648 22.5197 10.6986C22.8157 11.1324 22.9637 11.676 22.9637 12.3296C22.9637 13.2986 22.7121 14.0958 22.2088 14.7211C21.7056 15.3464 21.01 15.7718 20.1219 15.9972L21.0633 16.5211L24.1714 21L21.1165 21L18.0261 16.4197L16.6407 16.2169L16.6407 21L14.0121 21L14.0121 9.28735L14.0121 9.28735ZM26.5694 10.5212L25.1485 10.5212L25.1485 9.16907L30.6189 9.16907L30.6189 10.5212L29.198 10.5212L29.198 19.6479L30.6189 19.6479L30.6189 21L25.1485 21L25.1485 19.6479L26.5694 19.6479L26.5694 10.5212L26.5694 10.5212ZM47.9009 9.16907L55.9111 9.16907L55.9111 11.3663L50.5295 11.3663L50.5295 13.9352L55.4138 13.9352L55.4138 16.1324L50.5295 16.1324L50.5295 18.8029L55.9999 18.8029L55.9999 21L47.9009 21L47.9009 9.16907L47.9009 9.16907ZM6.9075 11.1972C6.65884 11.1972 6.41907 11.2028 6.18817 11.2141C5.95728 11.2254 5.77078 11.2479 5.62869 11.2817L5.62869 14.7972C5.67606 14.8085 5.75302 14.8197 5.85959 14.831C5.96616 14.8423 6.07864 14.8507 6.19705 14.8563C6.31546 14.862 6.42499 14.8676 6.52563 14.8732C6.62628 14.8789 6.70621 14.8817 6.76541 14.8817C7.1088 14.8817 7.45218 14.8592 7.79556 14.8141C8.13895 14.769 8.44385 14.6733 8.71027 14.5268C8.97668 14.3803 9.19278 14.1803 9.35855 13.9268C9.52432 13.6733 9.60718 13.3324 9.60718 12.9042C9.60718 12.5437 9.53024 12.2535 9.37631 12.0338C9.22238 11.8141 9.01813 11.6423 8.76355 11.5183C8.50897 11.3944 8.21887 11.3099 7.89325 11.2648C7.56763 11.2197 7.23904 11.1972 6.9075 11.1972L6.9075 11.1972ZM18.0439 11.1972C17.7715 11.1972 17.5081 11.2 17.2535 11.2056C16.999 11.2113 16.7947 11.231 16.6408 11.2648L16.6408 14.5268L17.7597 14.5268C18.5057 14.5268 19.0948 14.3916 19.5269 14.1212C19.9591 13.8507 20.1752 13.3831 20.1752 12.7183C20.1752 12.2225 19.9917 11.8451 19.6246 11.5859C19.2576 11.3268 18.7307 11.1972 18.0439 11.1972L18.0439 11.1972ZM4.70145 27.9567C4.83698 27.9279 4.94614 27.8819 5.02893 27.8187L4.91977 27.3324C4.85452 27.3708 4.77988 27.4025 4.6958 27.4272C4.61172 27.4519 4.50821 27.4643 4.38525 27.4643C4.25226 27.4643 4.13556 27.4409 4.03519 27.3942C3.93478 27.3475 3.85199 27.2816 3.78674 27.1964C3.7215 27.1113 3.67255 27.0096 3.63992 26.8915C3.6073 26.7734 3.591 26.6429 3.591 26.5C3.591 26.3379 3.60919 26.1964 3.64557 26.0756C3.68198 25.9547 3.73279 25.8544 3.79803 25.7747C3.86328 25.6951 3.94171 25.6353 4.03329 25.5955C4.12491 25.5557 4.22714 25.5357 4.34009 25.5357C4.46808 25.5357 4.5741 25.5426 4.65817 25.5563C4.74225 25.5701 4.81564 25.592 4.87839 25.6223L4.98755 25.1113C4.91476 25.0811 4.82254 25.0549 4.71088 25.033C4.59918 25.011 4.46179 25 4.29868 25C4.1506 25 4.00003 25.0261 3.84695 25.0783C3.69388 25.1305 3.5546 25.215 3.42914 25.3317C3.30365 25.4485 3.20078 25.6024 3.12045 25.7933C3.04016 25.9842 3 26.2198 3 26.5C3 26.7692 3.03513 26.9986 3.10541 27.1882C3.17566 27.3777 3.27042 27.533 3.38959 27.6539C3.50879 27.7747 3.64557 27.8626 3.7999 27.9176C3.95425 27.9725 4.11548 28 4.28363 28C4.42667 28 4.56595 27.9856 4.70145 27.9567L4.70145 27.9567ZM5.23233 25.8654C5.17712 26.0522 5.14951 26.2637 5.14951 26.5C5.14951 26.7225 5.17459 26.9258 5.22479 27.1099C5.27499 27.2939 5.35089 27.4519 5.45251 27.5838C5.55417 27.7156 5.68091 27.818 5.83273 27.8908C5.98456 27.9636 6.16211 28 6.36536 28C6.55359 28 6.72296 27.9664 6.87354 27.899C7.02411 27.8317 7.1521 27.7342 7.25751 27.6064C7.36292 27.4787 7.44385 27.3214 7.50031 27.1346C7.55676 26.9478 7.58499 26.7362 7.58499 26.5C7.58499 26.2775 7.55927 26.0742 7.50781 25.8901C7.45639 25.7061 7.37985 25.5481 7.2782 25.4162C7.17657 25.2844 7.04984 25.182 6.89801 25.1092C6.74619 25.0364 6.56863 25 6.36536 25C6.17465 25 6.004 25.0336 5.85342 25.101C5.70285 25.1683 5.5755 25.2658 5.47134 25.3936C5.36722 25.5213 5.28754 25.6786 5.23233 25.8654L5.23233 25.8654ZM11.8013 26.9492C11.8665 26.9986 11.8992 27.0659 11.8992 27.1511C11.8992 27.261 11.8559 27.342 11.7693 27.3942C11.6827 27.4464 11.5566 27.4725 11.391 27.4725C11.3207 27.4725 11.2511 27.467 11.1821 27.4561C11.113 27.4451 11.0484 27.4307 10.9882 27.4128C10.928 27.3949 10.8734 27.3764 10.8245 27.3571C10.7755 27.3379 10.7372 27.3201 10.7096 27.3036L10.5252 27.8187C10.5603 27.8379 10.6074 27.8578 10.6664 27.8784C10.7253 27.899 10.7937 27.9183 10.8715 27.9361C10.9493 27.954 11.034 27.9691 11.1256 27.9814C11.2172 27.9938 11.3144 28 11.4173 28C11.5704 28 11.7109 27.9821 11.8389 27.9464C11.9669 27.9107 12.0767 27.8551 12.1683 27.7795C12.2599 27.704 12.3308 27.6085 12.381 27.4932C12.4312 27.3777 12.4563 27.2404 12.4563 27.0811C12.4563 26.9217 12.4236 26.7912 12.3584 26.6896C12.2932 26.5879 12.2122 26.5034 12.1156 26.4362C12.019 26.3688 11.9142 26.3138 11.8013 26.2713C11.6884 26.2287 11.5836 26.1862 11.487 26.1436C11.3904 26.101 11.3094 26.0543 11.2442 26.0034C11.1789 25.9526 11.1463 25.8846 11.1463 25.7994C11.1463 25.7143 11.1808 25.6476 11.2498 25.5996C11.3188 25.5515 11.4161 25.5275 11.5415 25.5275C11.6118 25.5275 11.6808 25.5323 11.7486 25.5419C11.8163 25.5515 11.8803 25.5638 11.9406 25.579C12.0008 25.5941 12.0541 25.6119 12.1006 25.6326C12.147 25.6531 12.1852 25.6731 12.2154 25.6923L12.3923 25.1813C12.2969 25.1236 12.1746 25.079 12.0253 25.0474C11.8759 25.0158 11.7185 25 11.5529 25C11.4098 25 11.2787 25.0179 11.1595 25.0536C11.0403 25.0893 10.9386 25.1422 10.8546 25.2122C10.7705 25.2823 10.7053 25.3716 10.6588 25.4801C10.6124 25.5886 10.5892 25.7143 10.5892 25.8571C10.5892 26.0247 10.6218 26.1607 10.687 26.2651C10.7523 26.3695 10.8332 26.4561 10.9298 26.5247C11.0265 26.5934 11.1313 26.6484 11.2442 26.6896C11.3571 26.7308 11.4619 26.772 11.5585 26.8132C11.6551 26.8544 11.736 26.8997 11.8013 26.9492L11.8013 26.9492ZM25.4889 26.4258L24.4123 26.4258L24.4123 26.7967L25.0371 26.8627L25.0371 27.3613C24.9895 27.397 24.9311 27.4231 24.8621 27.4396C24.7931 27.4561 24.7247 27.4643 24.657 27.4643C24.5565 27.4643 24.4612 27.4464 24.3708 27.4107C24.2805 27.375 24.2008 27.318 24.1318 27.2397C24.0628 27.1614 24.0082 27.0618 23.9681 26.9409C23.9279 26.8201 23.9078 26.6744 23.9078 26.5041C23.9078 26.3283 23.9279 26.1786 23.9681 26.0549C24.0082 25.9313 24.0647 25.8311 24.1375 25.7541C24.2103 25.6772 24.2956 25.6216 24.3934 25.5872C24.4913 25.5529 24.5992 25.5357 24.7172 25.5357C24.8452 25.5357 24.9518 25.5439 25.0371 25.5604C25.1225 25.5769 25.199 25.5975 25.2668 25.6223L25.3835 25.1154C25.3132 25.0906 25.2159 25.0652 25.0917 25.0391C24.9675 25.0131 24.8238 25 24.6607 25C24.5026 25 24.3439 25.0268 24.1845 25.0804C24.0252 25.1339 23.8809 25.2205 23.7516 25.34C23.6224 25.4595 23.5176 25.6147 23.4373 25.8057C23.357 25.9966 23.3169 26.228 23.3169 26.5C23.3169 26.761 23.3501 26.9863 23.4166 27.1758C23.4831 27.3654 23.5747 27.5213 23.6914 27.6436C23.8081 27.7658 23.9449 27.8558 24.1017 27.9135C24.2585 27.9711 24.4273 28 24.608 28C24.6858 28 24.7649 27.9945 24.8452 27.9835C24.9255 27.9725 25.0039 27.9554 25.0804 27.932C25.157 27.9086 25.2297 27.8798 25.2988 27.8455C25.3678 27.8112 25.4311 27.7692 25.4889 27.7198L25.4889 26.4258L25.4889 26.4258ZM34.9265 27.9567C35.062 27.9279 35.1711 27.8819 35.2539 27.8187L35.1448 27.3324C35.0795 27.3708 35.0049 27.4025 34.9208 27.4272C34.8367 27.4519 34.7332 27.4643 34.6103 27.4643C34.4773 27.4643 34.3606 27.4409 34.2602 27.3942C34.1598 27.3475 34.077 27.2816 34.0117 27.1964C33.9465 27.1113 33.8976 27.0096 33.8649 26.8915C33.8323 26.7734 33.816 26.6429 33.816 26.5C33.816 26.3379 33.8342 26.1964 33.8706 26.0756C33.907 25.9547 33.9578 25.8544 34.023 25.7747C34.0883 25.6951 34.1667 25.6353 34.2583 25.5955C34.3499 25.5557 34.4521 25.5357 34.5651 25.5357C34.6931 25.5357 34.7991 25.5426 34.8832 25.5563C34.9672 25.5701 35.0406 25.592 35.1034 25.6223L35.2126 25.1113C35.1398 25.0811 35.0475 25.0549 34.9359 25.033C34.8242 25.011 34.6868 25 34.5237 25C34.3756 25 34.225 25.0261 34.072 25.0783C33.9189 25.1305 33.7796 25.215 33.6541 25.3317C33.5286 25.4485 33.4258 25.6024 33.3455 25.7933C33.2652 25.9842 33.225 26.2198 33.225 26.5C33.225 26.7692 33.2602 26.9986 33.3304 27.1882C33.4007 27.3777 33.4954 27.533 33.6146 27.6539C33.7338 27.7747 33.8706 27.8626 34.0249 27.9176C34.1793 27.9725 34.3405 28 34.5086 28C34.6517 28 34.791 27.9856 34.9265 27.9567L34.9265 27.9567ZM40.9347 25.8654C40.8795 26.0522 40.8518 26.2638 40.8518 26.5C40.8518 26.7225 40.877 26.9258 40.9272 27.1099C40.9774 27.2939 41.0532 27.4519 41.1549 27.5838C41.2565 27.7156 41.3833 27.818 41.535 27.8908C41.6869 27.9636 41.8644 28 42.0677 28C42.2559 28 42.4253 27.9664 42.5759 27.899C42.7265 27.8317 42.8544 27.7342 42.9598 27.6064C43.0652 27.4787 43.1462 27.3214 43.2026 27.1346C43.2591 26.9478 43.2873 26.7363 43.2873 26.5C43.2873 26.2775 43.2616 26.0742 43.2102 25.8901C43.1587 25.7061 43.0822 25.5481 42.9805 25.4162C42.8789 25.2844 42.7522 25.182 42.6004 25.1092C42.4485 25.0364 42.271 25 42.0677 25C41.877 25 41.7063 25.0336 41.5558 25.101C41.4052 25.1683 41.2778 25.2658 41.1737 25.3936C41.0695 25.5213 40.9899 25.6786 40.9347 25.8654L40.9347 25.8654ZM45.3806 25.8654C45.3253 26.0522 45.2977 26.2638 45.2977 26.5C45.2977 26.7225 45.3228 26.9258 45.373 27.1099C45.4024 27.2178 45.4406 27.3167 45.4877 27.4066L44.2398 27.4066L44.2398 25.0577L43.6827 25.0577L43.6827 27.9423L45.4971 27.9423L45.4971 27.4242C45.528 27.4811 45.5626 27.5342 45.6007 27.5838C45.7024 27.7156 45.8291 27.818 45.9809 27.8908C46.1328 27.9636 46.3103 28 46.5136 28C46.7018 28 46.8712 27.9664 47.0218 27.899C47.1723 27.8317 47.3003 27.7342 47.4057 27.6064C47.5111 27.4787 47.592 27.3214 47.6485 27.1346C47.705 26.9478 47.7332 26.7362 47.7332 26.5C47.7332 26.2775 47.7075 26.0742 47.656 25.8901C47.6046 25.7061 47.528 25.5481 47.4264 25.4162C47.3248 25.2844 47.198 25.182 47.0462 25.1092C46.8944 25.0364 46.7169 25 46.5136 25C46.3228 25 46.1522 25.0336 46.0016 25.101C45.8511 25.1683 45.7237 25.2658 45.6196 25.3936C45.5154 25.5213 45.4357 25.6786 45.3806 25.8654L45.3806 25.8654ZM50.2065 26.4258L49.1299 26.4258L49.1299 26.7967L49.7547 26.8627L49.7547 27.3613C49.7071 27.397 49.6487 27.4231 49.5797 27.4396C49.5107 27.4561 49.4423 27.4643 49.3745 27.4643C49.2742 27.4643 49.1788 27.4464 49.0885 27.4107C48.9981 27.375 48.9184 27.318 48.8494 27.2397C48.7804 27.1614 48.7259 27.0618 48.6857 26.9409C48.6455 26.8201 48.6255 26.6744 48.6255 26.5041C48.6255 26.3283 48.6455 26.1786 48.6857 26.0549C48.7259 25.9313 48.7823 25.8311 48.8551 25.7541C48.9279 25.6772 49.0132 25.6216 49.111 25.5872C49.2089 25.5529 49.3168 25.5357 49.4348 25.5357C49.5627 25.5357 49.6694 25.5439 49.7547 25.5604C49.8401 25.5769 49.9166 25.5975 49.9843 25.6223L50.101 25.1154C50.0308 25.0906 49.9335 25.0652 49.8093 25.0391C49.6851 25.0131 49.5414 25 49.3783 25C49.2202 25 49.0615 25.0268 48.9021 25.0804C48.7428 25.1339 48.5984 25.2205 48.4692 25.34C48.34 25.4595 48.2352 25.6147 48.1549 25.8057C48.0746 25.9966 48.0345 26.228 48.0345 26.5C48.0345 26.761 48.0677 26.9863 48.1342 27.1758C48.2007 27.3654 48.2923 27.5213 48.409 27.6436C48.5257 27.7658 48.6624 27.8558 48.8193 27.9135C48.9762 27.9711 49.1449 28 49.3256 28C49.4034 28 49.4825 27.9945 49.5627 27.9835C49.643 27.9725 49.7215 27.9554 49.798 27.932C49.8746 27.9086 49.9474 27.8798 50.0164 27.8455C50.0854 27.8112 50.1487 27.7692 50.2065 27.7198L50.2065 26.4258L50.2065 26.4258ZM55.345 26.9492C55.4103 26.9986 55.4429 27.0659 55.4429 27.1511C55.4429 27.261 55.3996 27.342 55.313 27.3942C55.2264 27.4464 55.1003 27.4725 54.9347 27.4725C54.8644 27.4725 54.7948 27.467 54.7258 27.4561C54.6568 27.4451 54.5921 27.4307 54.5319 27.4128C54.4717 27.3949 54.4171 27.3764 54.3682 27.3571C54.3192 27.3379 54.281 27.3201 54.2533 27.3036L54.0689 27.8187C54.1041 27.8379 54.1511 27.8578 54.2101 27.8784C54.269 27.899 54.3374 27.9183 54.4152 27.9361C54.493 27.954 54.5777 27.9691 54.6693 27.9814C54.7609 27.9938 54.8582 28 54.9611 28C55.1141 28 55.2547 27.9821 55.3827 27.9464C55.5106 27.9107 55.6204 27.8551 55.712 27.7795C55.8036 27.704 55.8745 27.6085 55.9247 27.4932C55.9749 27.3777 56 27.2404 56 27.0811C56 26.9217 55.9674 26.7912 55.9021 26.6896C55.8369 26.5879 55.756 26.5034 55.6593 26.4362C55.5627 26.3688 55.4579 26.3138 55.345 26.2713C55.2321 26.2287 55.1273 26.1862 55.0307 26.1436C54.9341 26.101 54.8531 26.0543 54.7879 26.0034C54.7227 25.9526 54.69 25.8846 54.69 25.7994C54.69 25.7143 54.7245 25.6476 54.7935 25.5996C54.8625 25.5515 54.9598 25.5275 55.0853 25.5275C55.1555 25.5275 55.2245 25.5323 55.2923 25.5419C55.3601 25.5515 55.4241 25.5638 55.4843 25.579C55.5445 25.5941 55.5978 25.6119 55.6443 25.6326C55.6907 25.6531 55.729 25.6731 55.7591 25.6923L55.936 25.1813C55.8406 25.1236 55.7183 25.079 55.569 25.0474C55.4197 25.0158 55.2622 25 55.0966 25C54.9535 25 54.8224 25.0179 54.7032 25.0536C54.584 25.0893 54.4823 25.1422 54.3983 25.2122C54.3142 25.2823 54.249 25.3716 54.2025 25.4801C54.1561 25.5886 54.1329 25.7143 54.1329 25.8571C54.1329 26.0247 54.1655 26.1607 54.2308 26.2651C54.296 26.3695 54.377 26.4561 54.4736 26.5247C54.5702 26.5934 54.675 26.6484 54.7879 26.6896C54.9008 26.7308 55.0056 26.772 55.1022 26.8132C55.1988 26.8544 55.2798 26.8997 55.345 26.9492L55.345 26.9492ZM8.466 26.0054L8.69186 26.4382L9.77222 27.9629L10.175 27.9629L10.175 25.0576L9.64798 25.0576L9.64798 26.57L9.70822 26.9944L9.68564 26.9944L9.47107 26.5742L8.38318 25.037L7.98041 25.037L7.98041 27.9423L8.50742 27.9423L8.50742 26.4423L8.44717 26.0054L8.466 26.0054L8.466 26.0054ZM21.2125 26.0054L21.4384 26.4382L22.5187 27.9629L22.9215 27.9629L22.9215 25.0576L22.3945 25.0576L22.3945 26.57L22.4547 26.9944L22.4321 26.9944L22.2176 26.5742L21.1297 25.037L20.7269 25.037L20.7269 27.9423L21.2539 27.9423L21.2539 26.4423L21.1937 26.0054L21.2125 26.0054L21.2125 26.0054ZM38.7475 26.0054L38.9733 26.4382L40.0537 27.9629L40.4565 27.9629L40.4565 25.0576L39.9295 25.0576L39.9295 26.57L39.9897 26.9944L39.9671 26.9944L39.7526 26.5742L38.6647 25.037L38.2619 25.037L38.2619 27.9423L38.7889 27.9423L38.7889 26.4423L38.7287 26.0054L38.7475 26.0054L38.7475 26.0054ZM14.9107 25.0577L14.3837 25.0577L14.3837 26.8668C14.3837 27.0756 14.3436 27.226 14.2633 27.318C14.183 27.41 14.06 27.4561 13.8944 27.4561C13.7212 27.4561 13.5907 27.4128 13.5029 27.3262C13.415 27.2397 13.3711 27.0865 13.3711 26.8668L13.3711 25.0577L12.814 25.0577L12.814 26.978C12.814 27.3159 12.9069 27.5693 13.0926 27.7383C13.2782 27.9073 13.548 27.9918 13.9019 27.9918C14.05 27.9918 14.1861 27.9705 14.3103 27.9279C14.4345 27.8853 14.5412 27.8201 14.6303 27.7321C14.7194 27.6442 14.7884 27.5316 14.8373 27.3942C14.8863 27.2568 14.9107 27.0948 14.9107 26.908L14.9107 25.0577L14.9107 25.0577ZM15.3851 27.9423L17.1995 27.9423L17.1995 27.4066L15.9422 27.4066L15.9422 25.0577L15.3851 25.0577L15.3851 27.9423L15.3851 27.9423ZM18.1407 25.5934L18.9763 25.5934L18.9763 25.0577L16.7479 25.0577L16.7479 25.5934L17.5836 25.5934L17.5836 27.9423L18.1407 27.9423L18.1407 25.5934L18.1407 25.5934ZM19.1722 25.3873L19.4734 25.3873L19.4734 27.6126L19.1722 27.6126L19.1722 27.9423L20.3316 27.9423L20.3316 27.6126L20.0305 27.6126L20.0305 25.3873L20.3316 25.3873L20.3316 25.0577L19.1722 25.0577L19.1722 25.3873L19.1722 25.3873ZM30.0627 25.5934L30.8984 25.5934L30.8984 25.0577L28.67 25.0577L28.67 25.5934L29.5056 25.5934L29.5056 27.9423L30.0627 27.9423L30.0627 25.5934L30.0627 25.5934ZM32.8861 25.0577L31.1884 25.0577L31.1884 27.9423L32.9049 27.9423L32.9049 27.4066L31.7455 27.4066L31.7455 26.7555L32.7807 26.7555L32.7807 26.2198L31.7455 26.2198L31.7455 25.5934L32.8861 25.5934L32.8861 25.0577L32.8861 25.0577ZM36.1612 26.7513L37.2152 26.7513L37.2152 27.9423L37.7723 27.9423L37.7723 25.0577L37.2152 25.0577L37.2152 26.2156L36.1612 26.2156L36.1612 25.0577L35.6041 25.0577L35.6041 27.9423L36.1612 27.9423L36.1612 26.7513L36.1612 26.7513ZM50.5228 25.3873L50.8239 25.3873L50.8239 27.6126L50.5228 27.6126L50.5228 27.9423L51.6822 27.9423L51.6822 27.6126L51.3811 27.6126L51.3811 25.3873L51.6822 25.3873L51.6822 25.0577L50.5228 25.0577L50.5228 25.3873L50.5228 25.3873ZM53.7752 25.0577L52.0775 25.0577L52.0775 27.9423L53.794 27.9423L53.794 27.4066L52.6346 27.4066L52.6346 26.7555L53.6698 26.7555L53.6698 26.2198L52.6346 26.2198L52.6346 25.5934L53.7752 25.5934L53.7752 25.0577L53.7752 25.0577ZM5.7782 26.8915C5.75311 26.7733 5.74054 26.6428 5.74054 26.5C5.74054 26.1648 5.79575 25.9203 5.90619 25.7665C6.0166 25.6126 6.16968 25.5357 6.36542 25.5357C6.47836 25.5357 6.57434 25.5598 6.65338 25.6078C6.73244 25.6559 6.79769 25.7232 6.84912 25.8098C6.90057 25.8963 6.93759 25.9986 6.96017 26.1168C6.98276 26.2349 6.99405 26.3626 6.99405 26.5C6.99405 26.8461 6.93884 27.0934 6.82843 27.2418C6.71802 27.3901 6.56366 27.4643 6.36542 27.4643C6.25751 27.4643 6.16403 27.4409 6.08499 27.3942C6.00592 27.3475 5.94131 27.2816 5.89111 27.1964C5.84094 27.1113 5.80328 27.0096 5.7782 26.8915L5.7782 26.8915ZM41.4806 26.8915C41.4554 26.7733 41.4429 26.6428 41.4429 26.5C41.4429 26.1648 41.4981 25.9203 41.6085 25.7665C41.719 25.6126 41.872 25.5357 42.0678 25.5357C42.1807 25.5357 42.2767 25.5598 42.3557 25.6078C42.4348 25.6559 42.5 25.7232 42.5515 25.8098C42.6029 25.8963 42.6399 25.9986 42.6625 26.1168C42.6851 26.2349 42.6964 26.3626 42.6964 26.5C42.6964 26.8461 42.6412 27.0934 42.5308 27.2418C42.4203 27.3901 42.266 27.4643 42.0678 27.4643C41.9599 27.4643 41.8664 27.4409 41.7873 27.3942C41.7083 27.3475 41.6436 27.2816 41.5934 27.1964C41.5433 27.1113 41.5056 27.0096 41.4806 26.8915L41.4806 26.8915ZM45.9264 26.8915C45.9013 26.7733 45.8887 26.6428 45.8887 26.5C45.8887 26.1648 45.9439 25.9203 46.0544 25.7665C46.1648 25.6126 46.3179 25.5357 46.5136 25.5357C46.6265 25.5357 46.7225 25.5598 46.8016 25.6078C46.8806 25.6559 46.9459 25.7232 46.9973 25.8098C47.0488 25.8963 47.0858 25.9986 47.1084 26.1168C47.131 26.2349 47.1422 26.3626 47.1422 26.5C47.1422 26.8461 47.087 27.0934 46.9766 27.2418C46.8662 27.3901 46.7119 27.4643 46.5136 27.4643C46.4057 27.4643 46.3122 27.4409 46.2332 27.3942C46.1541 27.3475 46.0895 27.2816 46.0393 27.1964C45.9891 27.1113 45.9515 27.0096 45.9264 26.8915L45.9264 26.8915ZM27.2 26C26.9239 26 26.7 26.2239 26.7 26.5C26.7 26.7761 26.9239 27 27.2 27C27.4762 27 27.7 26.7761 27.7 26.5C27.7 26.2239 27.4762 26 27.2 26L27.2 26Z"
        id="Vector" fill="currentColor" fill-rule="evenodd" stroke="none" />
    </g>
  </g>
</svg>
