<!--?xml version="1.0" encoding="utf-8"?-->
<svg version="1.1" xmlns="http://www.w3.org/2000/svg" xmlns:xlink="http://www.w3.org/1999/xlink" x="0px" y="0px"
	width="22px" height="22px" viewBox="0 0 14 14" xml:space="preserve">
	<g id="skype">
		<path fill="#00aff0" fill-rule="evenodd" clip-rule="evenodd" d="M12.469,7.851c0.044-0.281,0.067-0.569,0.067-0.863
			c0-3.065-2.507-5.552-5.599-5.552c-0.282,0-0.56,0.021-0.831,0.062C5.609,1.221,5.037,1.063,4.427,1.063
			c-1.899,0-3.439,1.526-3.439,3.41c0,0.594,0.153,1.151,0.421,1.637c-0.046,0.286-0.07,0.579-0.07,0.878
			c0,3.066,2.506,5.553,5.598,5.553c0.241,0,0.479-0.016,0.711-0.045c0.545,0.358,1.197,0.567,1.9,0.567
			c1.899,0,3.438-1.527,3.438-3.411C12.987,8.99,12.797,8.373,12.469,7.851z M8.962,9.83c-0.485,0.402-1.177,0.604-2.073,0.604
			c-0.89,0-1.6-0.191-2.129-0.575C4.305,9.537,4.078,9.166,4.078,8.745c0-0.186,0.061-0.337,0.182-0.454s0.275-0.177,0.461-0.177
			c0.218,0,0.414,0.105,0.588,0.315c0.28,0.341,0.451,0.532,0.513,0.575C6.089,9.216,6.444,9.32,6.885,9.32
			c0.379,0,0.684-0.093,0.914-0.278c0.212-0.167,0.317-0.368,0.317-0.603c0-0.353-0.219-0.585-0.655-0.696L5.727,7.308
			C4.627,7.029,4.078,6.42,4.078,5.48c0-0.687,0.284-1.212,0.853-1.577C5.418,3.595,6.03,3.439,6.767,3.439
			c0.637,0,1.224,0.148,1.762,0.445C9.098,4.2,9.381,4.571,9.381,4.998c0,0.186-0.068,0.332-0.205,0.44
			C9.037,5.547,8.872,5.601,8.679,5.601c-0.188,0-0.362-0.086-0.524-0.26c-0.25-0.266-0.412-0.423-0.488-0.473
			c-0.256-0.173-0.59-0.26-1.002-0.26c-0.35,0-0.622,0.073-0.815,0.218c-0.193,0.146-0.291,0.336-0.291,0.57
			c0,0.328,0.35,0.569,1.05,0.724l1.284,0.288c1.175,0.266,1.762,0.905,1.762,1.92C9.653,8.959,9.423,9.46,8.962,9.83z">
		</path>
	</g>
</svg>
