<?xml version="1.0" encoding="utf-8"?>
<svg width="381px" height="117.00012px" viewBox="0 0 381 117.00012" version="1.1"
  xmlns:xlink="http://www.w3.org/1999/xlink" xmlns="http://www.w3.org/2000/svg">
  <path
    d="M83.246 0.27063C96.6202 2.26147 97.409 16.6077 90.3802 23.6757C83.3513 30.7435 79.9422 30.7852 71.9003 32.6256C107.338 35.1499 93.735 93.2051 59.2722 88.0231C43.2667 85.6163 36.5834 73.4471 37.6148 61.1163C37.6148 61.1163 54.4066 58.4945 54.4507 70.4452C55.2149 76.3654 58.8618 76.8562 58.8618 76.8562C58.8618 76.8562 64.713 79.7605 71.1388 65.6371C75.6171 55.7938 74.3474 46.1722 73.6956 46.1497C65.3059 45.8595 60.0316 42.0166 57.3838 36.661C59.5774 35.6956 61.1865 35.0916 61.1865 35.0916C61.1865 35.0916 59.4734 35.6365 57.1676 36.5319C52.2779 38.2053 47.1391 40.5049 41.9021 43.9744C12.8593 60.7211 26.6893 77.7874 33.7718 86.5271C35.7935 89.0217 37.2654 90.838 37.0334 91.7748C35.989 95.9934 -17.6591 60.9331 11.8517 36.88C21.9621 28.6394 37.5744 25.5341 51.6234 23.835C56.3672 23.4938 61.1047 22.4537 61.1047 22.4537C61.1047 22.4537 58.7122 22.8522 55.6181 23.1412C57.4904 10.5742 67.8899 -2.01538 83.246 0.27063L83.246 0.27063ZM80.5889 9.5083C82.2363 11.202 82.2939 15.5758 78.9525 18.1888C76.136 20.3916 74.2582 21.0535 69.2026 21.6881C69.5212 20.7137 69.8946 19.7373 70.3304 18.7891C75.6997 7.10571 78.9415 7.81445 80.5889 9.5083L80.5889 9.5083ZM95.865 49.6974C97.2116 36.9338 98.325 23.0166 96.2285 21.6711C92.5632 19.3188 110.682 16.8026 112.253 29.2362C112.8 33.5717 112.272 39.618 111.277 46.0016C113.121 45.1477 115.177 44.4458 117.246 44.2202C123.78 43.5081 130.866 47.4995 131.288 57.1393C131.544 63.0076 130.344 67.298 129.323 70.9493C128.667 73.296 128.084 75.3786 128.01 77.4464C128.01 77.4464 128.052 79.5432 129.924 80.0795C131.211 80.4482 133.363 80.0791 134.581 79.8125C126.902 66.4589 136.658 44.132 158.482 44.8945C172.039 45.3683 172.664 52.0242 171.664 52.6708C173.349 53.9202 174.562 55.729 174.645 58.2697C174.838 64.1337 173.803 68.382 172.923 71.9981L172.923 71.9984C172.356 74.322 171.854 76.3843 171.782 78.4459C171.782 78.4459 171.81 80.5398 173.394 81.1276C174.649 81.5934 176.882 81.1133 177.754 80.8939C176.667 77.4294 176.527 73.6135 176.841 71.2242C177.023 69.8397 177.536 67.47 178.139 64.6782C179.04 60.5111 180.144 55.4038 180.657 51.2289C184.019 51.8984 187.33 51.9982 187.33 51.9982C187.33 51.9982 182.119 51.4944 178.137 50.0555C177.822 49.9152 177.503 49.769 177.18 49.6168C168.49 45.5225 174.619 32.8873 175.464 36.1216C176.31 39.356 193.315 42.1459 197.597 43.4976C201.879 44.8492 210.717 50.4059 207.378 57.3639C204.039 64.3221 196.625 61.3351 196.625 61.3351C196.625 61.3351 198.472 59.2379 198.444 57.7605C198.417 56.2831 196.514 55.4255 196.514 55.4255C195.607 55.0603 194.669 54.7717 193.686 54.5175C193.486 60.3258 192.468 64.6854 191.587 68.4587C190.95 71.1907 190.384 73.6151 190.252 76.0596C190.252 76.0596 190.219 78.5471 191.799 79.3207C193.378 80.0942 196.57 79.1538 196.57 79.1538C196.57 79.1538 196.06 88.6696 186.873 88.7751C182.129 88.8297 179.424 85.5625 178.012 81.6589C177.642 83.7439 175.994 88.915 168.741 89.278C162.862 89.572 160.021 85.76 158.896 81.5587C159.025 83.4387 159.47 85.2166 160.171 86.822C157.836 88.6591 154.369 89.6661 149.357 89.1727C142.704 88.1724 138.068 85.0592 135.269 80.9152C134.665 83.2327 132.463 87.8346 124.475 88.3986C113.742 89.1565 112.398 83.2411 114.314 75.1222C114.419 74.6787 114.528 74.2213 114.64 73.7524C116.577 65.6368 119.328 54.1102 113.517 52.949C112.302 52.7061 111.167 52.7476 110.128 52.9705C109.885 54.1569 109.351 57.2141 107.95 65.6776C104.95 83.798 105.46 87.9376 105.46 87.9376C105.46 87.9376 88.8946 90.5912 91.73 74.0479C92.7075 68.3446 94.386 59.1743 95.865 49.6974L95.865 49.6974ZM354.685 88.084C354.685 88.084 347.241 90.0992 342.356 88.8116C337.47 87.5242 335.131 83.7279 335.837 79.4598C337.282 70.7249 340.603 52.8416 341.075 49.4681C341.202 46.7269 340.967 44.6451 340.058 43.9319C337.247 41.7264 348.8 41.3792 352.515 47.4012C354.176 50.0944 352.019 62.7308 350.822 69.7433C350.736 70.2493 350.654 70.726 350.58 71.1676C350.832 70.8464 351.088 70.5216 351.348 70.1923C354.961 65.6155 359.243 60.1899 361.773 52.1948C369.903 31.15 355.401 28.0911 347.975 26.5245C345.855 26.0774 344.312 25.7518 344.036 25.1643C342.793 22.5184 385.826 18.1177 380.552 43.1771C376.855 60.7399 351.956 76.8258 351.14 82.5013C350.323 88.1769 354.685 88.084 354.685 88.084L354.685 88.084ZM256.206 44.3627C256.085 42.8058 255.774 41.6637 255.201 41.118C252.471 38.5199 265.056 37.8413 268.209 47.0061C269.844 45.6638 272.552 44.5261 276.295 44.5148C305.746 45.5439 295.016 92.8567 267.274 88.8077C266.581 88.6385 265.902 88.4446 265.264 88.2224C261.143 86.7858 257.877 84.0591 257.877 84.0591C257.877 84.0591 260.278 86.7887 263.953 88.3195C263.605 90.3342 263.252 92.4203 262.894 94.5837C259.895 112.704 260.404 116.844 260.404 116.844C260.404 116.844 243.839 119.497 246.675 102.954C247.897 95.8253 249.078 89.6857 250.217 83.8344C249.217 86.1564 246.911 88.9988 241.602 89.2644C235.723 89.5585 232.881 85.7465 231.757 81.545C231.886 83.4252 232.331 85.203 233.032 86.8085C230.696 88.6455 227.23 89.6526 222.218 89.1592C194.398 84.9761 201.855 43.8506 231.343 44.881C244.9 45.3547 245.525 52.0105 244.525 52.6572C246.209 53.9065 247.423 55.7153 247.506 58.2561C247.699 64.1205 246.664 68.3691 245.783 71.9849C245.217 74.3085 244.715 76.3707 244.643 78.4324C244.643 78.4324 244.671 80.5262 246.255 81.114C247.613 81.6183 250.117 81.0142 250.802 80.8322C252.093 74.2024 253.329 67.7937 254.505 60.5449C255.817 52.4591 256.192 48.3693 256.264 46.3275C256.27 45.671 256.255 45.0581 256.216 44.4968C256.198 44.3954 256.183 44.3627 256.183 44.3627L256.206 44.3627L256.206 44.3627ZM320.18 44.8671C290.693 43.8367 283.237 84.9612 311.056 89.1443C338.875 93.3273 349.668 45.8975 320.18 44.8671L320.18 44.8671ZM236.315 50.15C236.606 50.1805 236.884 50.2141 237.151 50.2502C234.398 50.0944 232.491 50.7205 233.73 51.5271C235.901 52.9412 234.077 61.1921 232.6 67.8705C232.296 69.2448 232.007 70.5524 231.771 71.7201C227.836 81.8701 221.89 80.2434 221.89 80.2434C221.89 80.2434 215.071 79.3257 220.117 63.3593C222.166 58.7914 224.063 55.8766 225.754 54.0704C227.94 51.3121 231.943 49.6901 236.315 50.15L236.315 50.15ZM163.454 50.1636C163.745 50.1941 164.023 50.2277 164.29 50.2639C161.537 50.1079 159.63 50.734 160.869 51.5406C163.04 52.9547 161.216 61.2057 159.739 67.884C159.435 69.2582 159.146 70.5657 158.91 71.7333C154.976 81.8838 149.029 80.257 149.029 80.257C149.029 80.257 142.21 79.3392 147.256 63.3727C149.305 58.8049 151.202 55.8901 152.893 54.084C155.079 51.3256 159.082 49.7036 163.454 50.1636L163.454 50.1636ZM269.561 58.5818C268.284 64.9659 266.861 72.1115 265.317 80.6172C269.105 80.0021 273.038 78.8447 276.644 70.9198C281.774 59.6444 280.313 54.4601 278.894 52.7015C278.894 52.7015 273.01 46.746 269.561 58.5818L269.561 58.5818ZM322.779 53.0542C324.198 54.8126 325.659 59.9969 320.529 71.2723C315.399 82.5476 310.728 80.2289 310.728 80.2289C310.728 80.2289 303.909 79.3112 308.955 63.3452C317.051 45.2961 322.779 53.0542 322.779 53.0542L322.779 53.0542Z"
    id="Sharapov" fill="currentColor" fill-rule="evenodd" stroke="none" />
</svg>
