<?xml version="1.0" encoding="utf-8"?>
<svg width="385.33228px" height="130.70825px" viewBox="0 0 385.33228 130.70825" version="1.1"
  xmlns:xlink="http://www.w3.org/1999/xlink" xmlns="http://www.w3.org/2000/svg">
  <path
    d="M316.053 52.1714C330.594 52.6791 336.101 63.5823 334.946 74.8943C335.384 73.1888 335.618 71.3879 335.618 69.5259C335.618 68.7601 335.578 68.0047 335.501 67.262L335.541 67.1024L335.541 67.1018C338.081 56.9355 341.114 44.7928 338.877 42.259C336.538 39.6094 346.452 39.5951 350.809 46.2426C354.779 42.6716 359.463 38.4612 363.599 31.5751C372.378 13.8604 365.514 6.17902 362.399 2.6936C361.414 1.59161 360.804 0.90918 361.182 0.461609C362.754 -1.40186 394.729 1.10699 382.587 32.2382C381.034 36.2192 376.044 45.7307 356.494 56.3076C365.139 56.5205 373.48 57.7423 372.522 69.3401C371.516 81.5338 366.219 95.6514 355.001 99.0601C346.042 101.782 338.416 98.8499 336.326 96.2606C333.95 93.6112 332.704 88.9469 332.617 83.9113C328.372 93.9647 318.917 102.05 306.159 100.133C290.389 97.7643 285.074 84.4565 288.162 72.4556C287.551 74.2518 287.167 76.1566 287.043 78.1342C285.663 82.3372 284.028 85.5834 283.617 88.9008C283.617 88.9008 283.465 91.1674 285.436 91.9229C286.945 92.5016 289.699 92.194 290.906 92.0181C291.051 92.2245 291.198 92.4283 291.349 92.6292C290.798 94.6911 288.382 100.547 278.765 100.385C267.1 100.189 265.687 88.8817 266.808 84.0653C267.086 82.8688 267.843 80.967 268.723 78.7548C271.386 72.062 275.178 62.5289 270.276 61.0961C268.942 60.7062 267.671 60.6528 266.494 60.8145C266.337 61.2432 266.017 62.8331 263.94 75.3643C260.688 94.9925 261.241 99.4766 261.241 99.4766C261.241 99.4766 252.449 100.884 248.22 95.5917C248.508 94.756 248.605 93.9846 248.504 93.4362C247.622 96.0455 245.244 99.8041 238.854 100.124C232.48 100.442 229.399 96.3127 228.179 91.7616C228.319 93.7982 228.802 95.7241 229.561 97.4632C227.029 99.4532 223.27 100.544 217.836 100.01C208.548 98.6143 202.887 93.4247 200.433 86.9424C201.289 84.7534 201.981 82.3372 202.467 79.758C199.298 91.5801 189.115 102.273 174.69 100.17C173.938 99.9865 173.201 99.7763 172.51 99.5358C168.041 97.9796 164.5 95.0259 164.5 95.0259C164.5 95.0259 167.104 97.9826 171.088 99.6408C170.711 101.823 170.328 104.083 169.94 106.426C166.688 126.055 167.24 130.539 167.24 130.539C167.24 130.539 149.28 133.413 152.354 115.493C153.387 109.472 154.393 104.102 155.372 99.0229C156.246 98.3203 156.842 97.3033 156.973 96.1511C155.546 98.1033 153.057 99.9066 148.717 100.124C142.343 100.442 139.262 96.3127 138.042 91.7616C138.182 93.7982 138.665 95.7241 139.424 97.4632C136.893 99.4532 133.133 100.544 127.699 100.01C120.967 98.9982 116.14 95.9934 113.059 91.9478C111.778 95.4642 108.662 100.309 101.229 100.135C95.4969 100.001 92.249 96.1216 90.5629 91.4229C89.1851 94.8885 86.0266 99.3318 78.9025 99.1649C73.3591 99.035 70.139 95.4028 68.4081 90.9141C67.1151 94.4259 63.9931 99.2199 56.5982 99.0467C44.9735 98.7744 43.5657 83.1 44.6824 76.4235C44.9598 74.7649 45.7138 72.1285 46.5908 69.0619C46.8072 68.3049 47.0436 67.4916 47.2925 66.6351C50.0945 56.994 54.4869 41.8805 50 40.0563C47.6689 39.1086 23.524 59.507 18.6539 68.3111C12.0011 80.3376 15.2675 87.1343 16.0863 88.8381C16.2664 89.213 16.3281 89.3413 16.1398 89.2247C15.0954 88.5784 -9.87584 72.2521 4.39189 55.9041C18.6596 39.5561 50.3528 32.0914 52.9725 32.0141C60.0731 31.8047 67.325 38.7038 66.8716 53.179C66.4184 67.6541 62.1351 75.2455 61.4327 83.1265C61.4327 83.1265 61.2817 86.2686 63.2458 87.316C64.3402 87.8997 66.0914 87.8328 67.4276 87.6592C66.4951 83.5634 66.527 79.2901 66.9867 76.5417C67.278 74.7999 68.0306 71.8281 68.9173 68.327C71.4296 58.4069 75.018 44.2379 72.2371 41.7633C68.475 38.4153 89.6292 38.8218 89.1759 53.2971C88.7227 67.7722 84.4394 75.3637 83.737 83.2446C83.737 83.2446 83.586 86.3868 85.55 87.4341C86.6029 87.9956 88.2637 87.9551 89.578 87.7967C88.8278 83.9626 88.8846 80.0744 89.3132 77.5117C89.6045 75.7699 90.3572 72.7979 91.2439 69.2965C93.7562 59.3765 97.3444 45.2079 94.5636 42.7334C90.8015 39.3854 111.956 39.7919 111.502 54.2672C111.049 68.7423 106.766 76.3337 106.064 84.2148C106.064 84.2148 105.912 87.3569 107.877 88.4042C108.6 88.7899 109.609 88.8915 110.597 88.8661C110.711 89.0148 110.83 89.1621 110.952 89.3079C111.294 89.7155 111.653 90.0966 112.026 90.4504C103.07 76.0626 113.612 51.2094 137.593 52.0466C152.293 52.5598 152.971 59.7694 151.886 60.47C153.713 61.8232 155.028 63.7826 155.119 66.5347C155.328 72.8869 154.206 77.4891 153.251 81.4059C152.637 83.9229 152.092 86.1568 152.014 88.39C152.014 88.39 152.044 90.6582 153.762 91.2949C154.592 91.6027 155.816 91.5292 156.86 91.3711C158.249 84.2462 159.578 77.3488 160.844 69.5549C162.267 60.7917 162.673 56.3615 162.752 54.1509C162.758 53.4415 162.741 52.779 162.699 52.1722C162.679 52.0616 162.663 52.026 162.663 52.026L162.688 52.026C162.558 50.3396 162.22 49.1024 161.599 48.5114C158.639 45.697 172.284 44.9619 175.703 54.8893C177.475 53.4353 180.412 52.2031 184.47 52.1908C195.819 52.587 201.665 59.3159 203.135 67.6293C203.068 66.7643 202.976 65.9156 202.859 65.086C207.441 57.4039 215.97 51.636 227.73 52.0466C242.43 52.5598 243.108 59.7694 242.023 60.47C243.85 61.8232 245.165 63.7826 245.256 66.5347C245.465 72.8867 244.343 77.4888 243.388 81.4059C242.774 83.9229 242.229 86.1568 242.151 88.39C242.151 88.39 242.181 90.6582 243.899 91.2949C244.554 91.5377 245.454 91.5432 246.318 91.4571C245.908 89.5713 245.869 87.2604 246.354 84.431C248.439 72.2759 249.937 61.7014 250.684 56.1555C250.892 52.3763 250.657 49.4982 249.599 48.4921C246.707 45.7418 260.827 45.5489 264.92 54.9333C267.695 53.5523 271.452 52.1073 275.127 52.0293C282.252 51.8782 289.529 56.8551 289.074 67.2972C289.03 68.3207 288.948 69.2964 288.837 70.2294C292.347 60.204 301.839 51.6753 316.053 52.1714L316.053 52.1714ZM142.984 57.7541C143.299 57.7872 143.601 57.8235 143.891 57.8627C140.905 57.6938 138.838 58.3719 140.181 59.2457C142.536 60.7775 140.558 69.715 138.957 76.9493C138.627 78.4377 138.314 79.854 138.057 81.1188C133.792 92.114 127.344 90.3518 127.344 90.3518C127.344 90.3518 119.951 89.3577 125.422 72.0626C127.643 67.1146 129.7 63.9572 131.534 62.0008C133.904 59.0128 138.245 57.2559 142.984 57.7541L142.984 57.7541ZM234.028 57.8627C233.738 57.8235 233.436 57.7872 233.121 57.7541C228.382 57.2559 224.041 59.0128 221.671 62.0008C219.837 63.9572 217.78 67.1146 215.559 72.0626C210.088 89.3577 217.481 90.3518 217.481 90.3518C217.481 90.3518 223.929 92.114 228.194 81.1188C228.451 79.854 228.764 78.4377 229.094 76.9493C230.695 69.715 232.673 60.7775 230.318 59.2457C228.975 58.3719 231.042 57.6938 234.028 57.8627L234.028 57.8627ZM316.431 80.7739C321.993 68.5602 320.409 62.9444 318.871 61.0396C318.871 61.0396 312.66 52.6359 303.882 72.1871C298.411 89.4818 305.804 90.4759 305.804 90.4759C305.804 90.4759 310.869 92.9875 316.431 80.7739L316.431 80.7739ZM172.567 91.2976C176.675 90.6313 180.939 89.3776 184.848 80.7932C190.41 68.5795 188.826 62.9637 187.288 61.0589C187.288 61.0589 180.908 54.608 177.169 67.4273C175.785 74.343 174.242 82.0836 172.567 91.2976L172.567 91.2976ZM347.115 84.0534C347.819 77.6682 350.509 71.5436 351.968 61.713C355.535 62.7417 359.841 66.4022 355.707 78.8281C354.229 83.2717 352.366 86.4943 350.378 88.8235C349.678 88.7836 348.997 88.6364 348.495 88.2937C346.878 87.1891 347.115 84.0534 347.115 84.0534L347.115 84.0534Z"
    id="Sharapov" fill="currentColor" fill-rule="evenodd" stroke="none" />
</svg>
