<?xml version="1.0" encoding="utf-8"?>
<svg width="384.42957px" height="113.53314px" viewBox="0 0 384.42957 113.53314" version="1.1"
  xmlns:xlink="http://www.w3.org/1999/xlink" xmlns="http://www.w3.org/2000/svg">
  <path
    d="M384 19.3317C381.824 29.7078 371.981 37.5479 364.529 44.861L368.379 42.5333C387.769 47.4318 378.176 71.7465 368.587 79.2472C358.086 87.461 341.036 81.4792 340 72.8317C339.967 72.5566 339.94 72.2668 339.919 71.9632C342.073 68.4276 343.538 63.5541 343.908 58.0726C342.372 71.5247 331.462 85.407 315.159 82.9581C299.389 80.5891 294.074 67.2816 297.162 55.2808C296.409 57.4949 296 59.8739 296 62.3508C296 62.9302 296.022 63.5043 296.066 64.0722C295.375 66.5439 294.77 68.7483 294.691 70.9374C294.691 70.9374 294.737 73.2087 296.766 73.7896C297.456 73.987 298.375 73.9892 299.288 73.9059C299.978 75.0128 300.764 76.0505 301.635 77.0069C300.263 79.4805 297.291 82.3472 290.858 82.801C279.221 83.622 277.763 77.2142 279.841 68.4196C279.954 67.9393 280.073 67.4438 280.194 66.936C282.294 58.1448 285.277 45.6592 278.977 44.4013C277.659 44.1382 276.429 44.6194 275.302 44.861C275.039 46.1462 274.459 49.0216 272.94 58.1891C269.688 77.8173 270.24 82.3014 270.24 82.3014C270.24 82.3014 261.449 83.7085 257.22 78.4165C257.508 77.5808 257.605 76.8093 257.504 76.2609C256.622 78.8703 254.244 82.6289 247.854 82.9483C241.48 83.267 238.398 79.1375 237.179 74.5864C237.319 76.623 237.802 78.549 238.561 80.288C236.029 82.278 232.27 83.3689 226.836 82.8344C217.548 81.4391 211.887 76.2496 209.433 69.7673C210.289 67.578 210.981 65.1616 211.467 62.5823C208.298 74.4047 198.115 85.0978 183.689 82.9946C182.937 82.8113 182.201 82.6012 181.51 82.3606C177.041 80.8044 173.5 77.8508 173.5 77.8508C173.5 77.8508 176.103 80.8074 180.088 82.4656C179.711 84.6481 179.328 86.9077 178.94 89.2512C175.688 108.879 176.24 113.364 176.24 113.364C176.24 113.364 158.279 116.238 161.354 98.3178C162.342 92.5579 163.306 87.394 164.244 82.5112C165.175 82.1317 165.946 81.4577 166.434 80.6098C164.937 81.8448 162.791 82.7946 159.717 82.9483C153.343 83.267 150.261 79.1375 149.042 74.5864C149.182 76.623 149.665 78.549 150.424 80.288C147.892 82.278 144.133 83.3689 138.699 82.8344C131.967 81.8231 127.14 78.8182 124.059 74.7726C122.778 78.2891 116.662 83.134 109.229 82.9598C103.497 82.8256 100.249 78.9465 98.5627 74.2478C97.1848 77.7134 90.0266 83.1567 82.9025 82.9897C77.3591 82.8599 74.139 78.2277 72.4081 73.739C71.1151 77.2507 63.9931 83.0448 56.5982 82.8716C44.9735 82.5992 42.4913 70.6534 44.6824 59.2483C46.8735 47.8433 56.0432 11.6135 51.5564 9.78931C49.2253 8.84161 23.524 42.3318 18.6539 51.136C12.0011 63.1625 15.2675 69.9592 16.0863 71.663C16.2664 72.0378 16.3281 72.1662 16.1398 72.0496C15.0954 71.4033 -9.87582 55.077 4.39189 38.729C13.7091 28.9283 20.8943 22.6053 36.3161 11.4963C51.7378 0.387207 53.007 1.03229 56.5982 1.00012C60.1894 0.967957 68.8813 8.43677 68.428 22.9119C67.9748 37.387 61.9783 54.1441 61.4327 65.9514C60.8871 77.7586 70.0914 70.6577 71.4276 70.4841C70.4951 66.3882 70.5269 62.115 70.9867 59.3665C71.278 57.6248 80.5744 13.9709 77.7935 11.4963C74.0314 8.14832 95.1855 8.55481 94.7323 23.03C94.2791 37.5051 88.2826 54.2621 87.737 66.0694C87.1914 77.8766 96.2637 70.78 97.5777 70.6216C96.8278 66.7875 96.8843 62.8993 97.313 60.3366C97.6042 58.5948 106.901 14.9409 104.12 12.4664C100.358 9.11841 121.512 9.52496 121.059 24.0001C120.605 38.4753 115.359 55.2324 114.063 67.0396C112.768 78.8469 120.609 71.7164 121.596 71.691C121.711 71.8397 121.83 71.987 121.952 72.1328C122.294 72.5403 122.653 72.9215 123.026 73.2754C114.069 58.8875 124.611 34.0342 148.593 34.8713C163.293 35.3846 163.97 42.5942 162.886 43.2948C164.712 44.6481 166.028 46.6074 166.118 49.3596C166.328 55.7119 165.205 60.314 164.25 64.2308C163.637 66.7477 163.092 68.9816 163.014 71.2148C163.014 71.2148 163.044 73.483 164.761 74.1197C165.074 74.2355 165.442 74.2973 165.835 74.321C167.233 67.1516 168.57 60.2192 169.844 52.3798C171.267 43.6166 171.673 39.1863 171.751 36.9758C171.757 36.2663 171.741 35.6038 171.699 34.9969C171.679 34.8864 171.663 34.8508 171.663 34.8508L171.688 34.8508C171.558 33.1644 171.22 31.9272 170.599 31.3362C167.639 28.5218 181.284 27.7867 184.702 37.7141C186.475 36.2601 189.411 35.0278 193.47 35.0156C204.819 35.4118 210.665 42.141 212.135 50.4546C212.068 49.5895 211.975 48.7407 211.859 47.9108C216.441 40.2288 224.969 34.4608 236.73 34.8713C251.43 35.3846 252.108 42.5942 251.023 43.2948C252.85 44.6481 254.165 46.6074 254.256 49.3596C254.465 55.7119 253.343 60.314 252.388 64.2308C251.774 66.7477 251.229 68.9816 251.151 71.2148C251.151 71.2148 251.181 73.483 252.899 74.1197C253.554 74.3625 254.454 74.368 255.317 74.2819C254.908 72.3962 254.869 70.0851 255.354 67.2557C257.439 55.1004 258.937 44.5255 259.684 38.9798C259.891 35.2011 259.657 32.3235 258.599 31.3174C255.667 28.5293 270.218 28.3693 274.083 38.1507C276.606 36.7121 279.798 35.2971 283.02 34.9462C290.105 34.1747 297.788 38.4984 298.245 48.9404C298.29 49.9772 298.294 50.9687 298.263 51.919C302.074 42.394 311.379 34.5187 325.053 34.9961C336.275 35.3879 342.117 41.972 343.668 50.1572C343.486 48.7672 343.233 47.4268 342.915 46.1494C343.321 43.9271 349.68 10.0295 350.035 7.99347C350.39 5.9574 350.891 3.7077 349.06 2.66815C348.375 2.12921 348.58 1.70563 349.324 1.46857C353.24 -0.986389 388.709 -3.12207 384 19.3317L384 19.3317ZM366.603 27.3555C364.332 33.6855 360.648 38.1855 357.308 41.9581C357.205 41.9716 357.102 41.9855 357 42C357 42 359.177 29.684 359.362 28.6997C359.463 28.1655 359.581 27.5561 359.71 26.8889C360.904 20.7166 363.056 9.59375 361.398 7.22327C361.346 7.14771 361.291 7.0733 361.235 7C367.241 9.53473 372.091 14.8203 366.603 27.3555L366.603 27.3555ZM153.984 40.5789C154.299 40.612 154.601 40.6483 154.891 40.6875C151.905 40.5186 149.838 41.1967 151.181 42.0705C153.536 43.6022 151.558 52.5397 149.957 59.774C149.627 61.2625 149.314 62.6788 149.057 63.9436C144.792 74.9387 138.344 73.1766 138.344 73.1766C138.344 73.1766 130.951 72.1824 136.422 54.8873C138.643 49.9394 140.7 46.782 142.534 44.8256C144.904 41.8376 149.245 40.0807 153.984 40.5789L153.984 40.5789ZM243.028 40.6875C242.738 40.6483 242.436 40.612 242.121 40.5789C237.382 40.0807 233.041 41.8376 230.671 44.8256C228.837 46.782 226.78 49.9394 224.559 54.8873C219.088 72.1824 226.481 73.1766 226.481 73.1766C226.481 73.1766 232.929 74.9387 237.194 63.9436C237.451 62.6788 237.764 61.2625 238.094 59.774C239.695 52.5397 241.673 43.6022 239.318 42.0705C237.975 41.1967 240.042 40.5186 243.028 40.6875L243.028 40.6875ZM325.431 63.5988C330.993 51.3851 329.41 45.7694 327.871 43.8646C327.871 43.8646 321.66 35.4609 312.882 55.012C307.411 72.3067 314.804 73.3008 314.804 73.3008C314.804 73.3008 319.869 75.8125 325.431 63.5988L325.431 63.5988ZM181.567 74.1224C185.675 73.4561 189.939 72.2024 193.848 63.618C199.41 51.4042 197.826 45.7885 196.288 43.8837C196.288 43.8837 189.908 37.4327 186.169 50.2521C184.785 57.1678 183.242 64.9083 181.567 74.1224L181.567 74.1224ZM359.207 60.527C359.207 60.527 350.991 64.6147 349.963 56.8705C350.223 59.0764 351.281 60.9654 352.805 62.0227C352.491 63.3773 352.163 64.8284 351.829 66.3459C350.087 74.27 357.569 76.8728 362.363 66.3459C367.157 55.8192 365.792 50.9791 364.466 49.3373C364.466 49.3373 363.401 47.8965 361.55 47.7952C358.344 50.9925 356.043 53.5233 355.808 55.1572C355.026 60.6163 359.207 60.527 359.207 60.527L359.207 60.527Z"
    id="Sharapov" fill="currentColor" fill-rule="evenodd" stroke="none" />
</svg>
