<?xml version="1.0" encoding="utf-8"?>
<svg width="388.56964px" height="115.53302px" viewBox="0 0 388.56964 115.53302" version="1.1"
  xmlns:xlink="http://www.w3.org/1999/xlink" xmlns="http://www.w3.org/2000/svg">
  <path
    d="M388.14 19.3318C385.964 29.7079 376.121 39.5479 368.669 46.861L372.519 44.5334C391.909 49.4318 382.316 73.7464 372.727 81.2474C362.226 89.4612 345.645 83.522 344.14 74.8319C343.92 73.5648 343.523 70.4377 343.893 68.4998C345.309 64.8523 345.608 63.4208 345.954 61C346.449 57.5413 346.076 55.7624 345.954 54.5002C346.66 50.5262 347.428 45.6545 348.051 42.5579C348.544 40.1071 348.946 38.1083 349.154 36.842C350.539 28.4402 353.723 11.2383 354.175 7.99347C354.297 5.35681 354.072 3.35437 353.2 2.66815C352.515 2.12921 352.72 1.70563 353.464 1.46857C357.38 -0.986389 392.849 -3.12213 388.14 19.3318L388.14 19.3318ZM296.766 75.7894C294.737 75.2086 294.691 72.9373 294.691 72.9373C294.77 70.7482 295.301 68.3035 296.766 61.5C298.232 54.6965 298.29 51.9771 298.245 50.9403C297.788 40.4983 290.105 36.1745 283.02 36.946C279.798 37.297 276.606 38.712 274.083 40.1506C270.218 30.3692 255.667 30.5292 258.599 33.3173C259.657 34.3233 259.892 37.201 259.684 40.9797C258.937 46.5254 257.439 57.1003 255.354 69.2557C254.869 72.085 254.908 74.3961 255.317 76.2818C254.454 76.3679 253.554 76.3624 252.899 76.1196C251.181 75.4829 251.151 73.2147 251.151 73.2147C251.229 70.9815 251.774 68.7476 252.388 66.2307C253.343 62.3136 254.465 57.7115 254.256 51.3594C254.165 48.6073 252.85 46.6479 251.023 45.2947C252.108 44.5941 251.43 37.3845 236.73 36.8712C224.969 36.4607 216.441 42.2286 211.859 49.9107C211.976 50.7405 212.068 51.5894 212.136 52.4545C210.665 44.1409 204.819 37.4117 193.47 37.0154C189.411 37.0277 186.475 38.26 184.702 39.714C181.284 29.7866 167.639 30.5216 170.599 33.3361C171.22 33.9271 171.558 35.1642 171.688 36.8507L171.663 36.8507C171.663 36.8507 171.679 36.8862 171.699 36.9968C171.741 37.6037 171.757 38.2662 171.751 38.9756C171.673 41.1862 171.267 45.6165 169.844 54.3796C168.57 62.2191 167.233 69.1515 165.835 76.3209C165.442 76.2972 165.074 76.2354 164.761 76.1196C163.044 75.4829 163.014 73.2147 163.014 73.2147C163.092 70.9815 163.637 68.7476 164.25 66.2307C165.206 62.3136 166.328 57.7115 166.118 51.3594C166.028 48.6073 164.712 46.6479 162.886 45.2947C163.97 44.5941 163.293 37.3845 148.593 36.8712C124.611 36.0341 114.069 60.8874 123.026 75.2753C122.653 74.9214 122.294 74.5402 121.952 74.1326C121.83 73.9869 121.711 73.8396 121.596 73.6909C121.415 73.6956 121.002 73.9401 120.457 74.263C118.036 75.6974 113.006 78.6772 114.063 69.0396C115.359 57.2323 120.605 40.4752 121.059 26C121.512 11.5248 100.358 11.1183 104.12 14.4662C106.565 16.6424 99.6707 50.6654 97.7742 60.0237C97.5142 61.3069 97.3481 62.1265 97.313 62.3365C96.8843 64.8992 96.8278 68.7874 97.5778 72.6215C97.3483 72.6491 96.8821 72.8884 96.2719 73.2017C93.3881 74.6822 87.2867 77.8144 87.737 68.0693C88.2826 56.2621 94.2791 39.505 94.7323 25.0299C95.1855 10.5547 74.0315 10.1482 77.7935 13.4962C80.2393 15.6725 73.3434 49.7004 71.4475 59.0558C71.1877 60.3378 71.0218 61.1565 70.9867 61.3664C70.527 64.1149 70.4951 68.3881 71.4276 72.484C71.196 72.5141 70.7283 72.7521 70.116 73.0638C67.1944 74.5507 60.9817 77.7126 61.4327 67.9512C61.9783 56.144 67.9749 39.3869 68.4281 24.9118C68.8814 10.4366 60.1894 2.96783 56.5982 3C56.4071 3.00171 56.2225 3.00146 56.0421 3.00122L56.0277 3.00122C52.8261 2.99677 50.8952 2.99408 36.3161 13.4962C20.8943 24.6052 13.7091 30.9282 4.39189 40.7289C-9.87584 57.0769 15.0954 73.4031 16.1398 74.0495C16.3281 74.1661 16.2664 74.0377 16.0863 73.6629C15.2674 71.9589 12.0012 65.1623 18.6539 53.1359C23.524 44.3317 49.2253 10.8415 51.5564 11.7892C55.1419 13.2469 50.0066 36.675 46.6805 51.8492C45.8444 55.6639 45.1226 58.957 44.6824 61.2482C42.4913 72.6533 44.9735 84.5991 56.5983 84.8715C63.9931 85.0447 71.1152 79.2507 72.4081 75.7389C74.139 80.2276 77.3591 84.8597 82.9025 84.9896C90.0266 85.1566 97.1848 79.7133 98.5627 76.2477C100.249 80.9464 103.497 84.8254 109.229 84.9597C116.662 85.1339 122.778 80.289 124.059 76.7725C127.14 80.8181 131.967 83.8229 138.699 84.8343C144.133 85.3688 147.892 84.2779 150.424 82.2879C149.665 80.5488 149.182 78.6229 149.042 76.5863C150.261 81.1374 153.343 85.2668 159.717 84.9482C162.791 84.7945 164.937 83.8447 166.434 82.6097C165.947 83.4576 165.175 84.1316 164.244 84.511C163.306 89.3939 162.342 94.5578 161.354 100.318C158.279 118.238 176.24 115.363 176.24 115.363C176.24 115.363 175.688 110.879 178.94 91.2511C179.328 88.9076 179.711 86.6479 180.088 84.4655C176.103 82.8073 173.5 79.8506 173.5 79.8506C173.5 79.8506 177.041 82.8043 181.51 84.3605C182.201 84.6011 182.937 84.8112 183.689 84.9945C198.115 87.0978 208.298 76.4045 211.468 64.5822C210.981 67.1615 210.289 69.5779 209.433 71.7672C211.887 78.2495 217.548 83.439 226.836 84.8343C232.271 85.3688 236.03 84.2779 238.561 82.2879C237.802 80.5488 237.319 78.6229 237.179 76.5863C238.399 81.1374 241.48 85.2668 247.854 84.9482C254.244 84.6288 256.622 80.8702 257.504 78.2608C257.605 78.8092 257.508 79.5807 257.22 80.4164C261.449 85.7084 270.241 84.3013 270.241 84.3013C270.241 84.3013 269.688 79.8172 272.94 60.189C274.46 51.0215 275.039 48.1461 275.302 46.8608C275.547 46.8083 275.797 46.7444 276.052 46.6793C276.969 46.4451 277.946 46.1953 278.977 46.4012C285.277 47.6591 282.294 60.1442 280.194 68.9359C280.073 69.4437 279.954 69.9392 279.841 70.4195C277.763 79.2141 279.221 85.6219 290.859 84.8009C297.291 84.3472 301.128 81.4803 302.5 79.0068C301.629 78.0504 300.69 76.8457 300 75.7389L299.85 75.7526C298.918 75.8385 297.42 75.9764 296.766 75.7894L296.766 75.7894ZM370.14 28.0058C367.959 34.9232 364.419 39.8408 361.209 43.9633C361.111 43.978 361.012 43.9933 360.914 44.0092C360.914 44.0092 363.005 30.5504 363.184 29.4747C363.28 28.891 363.394 28.2251 363.518 27.496C364.665 20.751 366.732 8.59589 365.14 6.00543C365.089 5.92285 365.037 5.84155 364.983 5.76147C370.753 8.53137 375.413 14.3074 370.14 28.0058L370.14 28.0058ZM316.464 85.1267C286.301 80.5956 294.385 36.0487 326.358 37.1648C358.33 38.2809 346.627 89.6579 316.464 85.1267L316.464 85.1267ZM154.891 42.6874C154.601 42.6482 154.299 42.6119 153.984 42.5787C149.245 42.0806 144.904 43.8375 142.534 46.8254C140.7 48.7819 138.643 51.9393 136.422 56.8872C130.951 74.1823 138.344 75.1765 138.344 75.1765C138.344 75.1765 144.792 76.9386 149.057 65.9435C149.314 64.6786 149.627 63.2623 149.957 61.7739C151.558 54.5396 153.536 45.6021 151.181 44.0704C149.838 43.1966 151.905 42.5185 154.891 42.6874L154.891 42.6874ZM242.121 42.5787C242.436 42.6119 242.738 42.6482 243.028 42.6874C240.042 42.5185 237.975 43.1966 239.318 44.0704C241.673 45.6021 239.695 54.5396 238.094 61.7739C237.764 63.2623 237.451 64.6786 237.194 65.9435C232.929 76.9386 226.481 75.1765 226.481 75.1765C226.481 75.1765 219.088 74.1823 224.559 56.8872C226.78 51.9393 228.837 48.7819 230.671 46.8254C233.041 43.8375 237.382 42.0806 242.121 42.5787L242.121 42.5787ZM326.736 65.7675C332.298 53.5538 330.714 47.9381 329.176 46.0333C329.176 46.0333 322.964 37.6296 314.186 57.1807C308.715 74.4754 316.109 75.4695 316.109 75.4695C316.109 75.4695 321.173 77.9812 326.736 65.7675L326.736 65.7675ZM193.848 65.6179C189.939 74.2023 185.675 75.4559 181.567 76.1223C183.242 66.9082 184.785 59.1677 186.169 52.252C189.908 39.4326 196.288 45.8835 196.288 45.8835C197.826 47.7883 199.41 53.4041 193.848 65.6179L193.848 65.6179ZM363.347 62.527C363.347 62.527 355.131 66.6147 354.102 58.8704C354.363 61.0763 355.421 62.9653 356.945 64.0227C356.631 65.3773 356.303 66.8284 355.969 68.3459C354.227 76.27 361.709 78.8728 366.503 68.3459C371.297 57.8192 369.932 52.9791 368.606 51.3373C368.606 51.3373 367.541 49.8965 365.69 49.7952C362.484 52.9925 360.183 55.5233 359.948 57.1572C359.166 62.6163 363.347 62.527 363.347 62.527L363.347 62.527Z"
    id="Sharapov" fill="currentColor" fill-rule="evenodd" stroke="none" />
</svg>
