<?xml version="1.0" encoding="utf-8"?>
<!DOCTYPE svg PUBLIC "-//W3C//DTD SVG 1.1//EN" "http://www.w3.org/Graphics/SVG/1.1/DTD/svg11.dtd">
<svg version="1.1" id="gabriel" xmlns="http://www.w3.org/2000/svg" xmlns:xlink="http://www.w3.org/1999/xlink" x="0px" y="0px" width="1100px" height="400px" viewBox="0 0 1100 400" xml:space="preserve">
    <g id="gabriel-logotype">
        <path fill="#099" d="M339.142,291.339c-7.592,11.312-16.955,16.83-14.307-15.139c1.016-12.268,3.565-34.071,5.845-50.499
			l2.419-23.264c-2.821-4.07-8.994-8.197-21.204-12.086c-10.478-3.336-21.228-4.371-21.228-4.371s-0.204,0.798-0.548,2.224
			c-26.574-9.214-66.938,1.618-77.414,44.558c-22.262,91.256,43.646,122.902,72.07,66.415c24.427,51.941,45.22,29.834,57.365,2.62
			c0,0,0.805-2.987,0.071-5.548C341.446,293.583,339.142,291.339,339.142,291.339z M283.847,261.314
			c-14.879,53.263-33.897,59.85-34.835,1.395c-0.524-32.697,8.982-55.271,20.221-60.836c9.012-4.462,20.208,5.244,20.208,5.244
			S290.244,238.416,283.847,261.314z M459.656,113.642c9.719-3.312,58.85-17.189,85.62-26.205
			c41.542-13.99,31.101-70.671,13.184-71.529c-2.353-0.112-3.655,2.324-2.908,5.443c0.271,1.134,0.78,2.197,1.426,3.103
			c-16.311,15.689-60.479,25.203-99.227,38.253c-37.011,12.466-57.813,19.016-71.634,38.438
			c-36.98,51.969,58.045,77.35,42.082,159.221c-10.583,54.28-33.897,59.85-34.835,1.396c-0.298-18.597,2.649-33.915,7.314-44.692
			c6.043-13.962-2.099-24.738-6.184-30.076c-17.86,5.55-34.244,19.679-40.377,44.82c-13.312,54.564,4.901,87.814,27.776,93.658
			c33.875,8.655,73.864-19.486,73.864-72.897c0-65.265-39.063-93.786-41.055-112.447
			C413.405,127.962,420.955,126.824,459.656,113.642z M307.495,4.319c-1.722-0.294-2.857,1.655-2.536,4.354
			c0.116,0.98,0.413,1.922,0.821,2.741c-13.139,11.88-46.307,16.195-75.75,23.955C105.775,68.117,27.02,102.128,14.42,138.837
			c-3.354,9.771-2.694,27.343,1.416,34.538c2.381,4.169,6.838,6.852,11.396,3.8c6.038-4.043,1.459-15.536-5.943-12.211
			c18.417-20.849,97.57-44.688,167.46-62.896l-0.07,0.058c0,0-31.439,13.339-32.118,20.614c-3.54,37.954-8.1,86.836-11.267,120.796
			c-4.65,49.854-7.773,63.999-24.9,57.441c-17.513-6.705-50.036-44.62-74.963-34.479c-20.561,8.364-36.278,34.377-30.096,42.869
			c1.167,1.603,3.432,1.161,5.06-0.985c0.591-0.78,1.012-1.68,1.258-2.584c10.46,1.315,24.24,9.33,39.39,19.365
			c3.264,2.162,73.682,39.624,110.547-5.264c15.607-19.003,14.063-40.124,19.691-100.461c4.203-45.061,9.34-100.136,11.28-120.928
			c41.95-10.693,78.66-19.052,93.929-23.075C328.054,67.116,320.604,6.555,307.495,4.319z M784.289,188.96
			c-22.421,3.415-37.852,24.91-39.475,33.947c-2.266,12.615,27.921,21.718,27.921,21.718s5.188-22.323,19.304-26.976
			c11.551-3.807,21.897,19.748,14.919,46.854c0.151-5.671-1.152-9.139-1.152-9.139c-25.884-5.21-34.01,11.401-34.01,11.401
			s0.384,5.673,3.148,9.347c2.296,3.051,7.061,4.219,7.061,4.219c0.026-0.021,7.645-2.188,19.238-0.625
			c-1.108,2.198-2.344,4.391-3.718,6.566c-19.015,30.097-51.333,11.034-51.35,11.224c-0.508,5.835,8.45,21.784,24.813,26.397
			c29.033,8.185,64.326-1.773,76.434-66.202C853.073,227.624,845.498,179.638,784.289,188.96z M973.964,290.39
			c-7.593,11.311-16.956,16.83-14.308-15.14c1.016-12.268,3.565-34.071,5.845-50.499l2.419-23.263
			c-1.49-2.15-10.407-8.211-20.442-11.963c-11.471-4.289-24.13-6.165-24.13-6.165s5.958,13.396-18.991,30.307
			c-38.972,26.415-62.696,68.339-47.38,114.381c6.859,20.618,21.996,33.489,35.206,39.615c14.309,6.635,22.059,0.982,19.737-7.138
			c-1.551-5.427-8.647-3.491-11.559-1.122c-2.381-5.443-4.821-12.497-7.154-21.679c-8.415-33.107,5.792-81.451,22.647-99.623
			c-0.501,4.615-0.893,9.246-1.113,13.759c-2.08,42.555,8.477,57.151,18.46,68.554c18.473,21.096,33.942,2.433,43.76-19.567
			c0,0,0.806-2.987,0.071-5.548C976.268,292.633,973.964,290.39,973.964,290.39z M505.296,189.25
			c-32.332,11.308-37.214,46.262-37.96,71.034c-1.424,47.352-1.688,83.297-0.399,111.641c0.926,20.354,32.289,22.8,32.289,22.8
			v-71.723c4.673,3.07,10.368,5.482,16.848,6.122c31.167,3.078,65.459-13.461,66.2-81.292
			C582.619,216.177,559.603,170.256,505.296,189.25z M519.65,311.865c-9.098,4.475-20.401-5.259-20.401-5.259
			s-0.811-31.389,5.647-54.353c15.021-53.416,34.221-60.022,35.167-1.399C540.594,283.646,530.996,306.285,519.65,311.865z
			 M1036.387,216.354l2.261-16.379c-2.821-4.07-9.709-6.685-21.919-10.572c-10.478-3.337-21.228-4.371-21.228-4.371
			s-9.246,36.126-10.747,66.829c-1.939,39.686,5.452,59.787,28.131,72.153c19.853,10.826,43.838,5.912,56.506-6.063
			c10.04-9.492,17.069-26.104,17.326-53.103C1086.935,241.857,1075.875,208.206,1036.387,216.354z M1052.208,279.612
			c-12.248,42.918-25.179,34.245-25.793-8.017c-0.265-18.169,6.519-41.088,6.519-41.088s10.297-4.912,16.159,0.187
			C1056.404,237.052,1059.06,255.605,1052.208,279.612z M730.226,290.39c-7.593,11.311-16.956,16.83-14.308-15.14
			c1.017-12.268,3.566-34.071,5.845-50.499l2.419-23.263c-2.821-4.07-8.994-8.198-21.203-12.086
			c-10.479-3.337-21.229-4.371-21.229-4.371s-9.246,36.126-10.747,66.829c-0.923,18.885,0.713,33.6,4.485,45.244
			c-10.321,11.714-32.859,26.946-32.859-16.38c0-12.31,1.47-39.56,3.109-56.063l1.517-23.339
			c-2.978-3.958-9.306-7.843-21.656-11.255c-10.6-2.928-21.382-3.544-21.382-3.544s-7.839,36.457-8.148,67.195
			c-0.383,37.98,7.222,57.942,28.035,70.104c20.612,12.043,45.032,3.7,59.281-10.404c3.117,4.515,6.757,8.349,10.865,11.65
			c16.354,13.143,30.016-4.151,38.974-24.223c0,0,0.805-2.987,0.07-5.548C732.53,292.633,730.226,290.39,730.226,290.39z" />
    </g>
</svg>
