<?xml version="1.0" encoding="utf-8"?>
<svg version="1.1" id="Sharapov_Logo_1_" xmlns="http://www.w3.org/2000/svg" xmlns:xlink="http://www.w3.org/1999/xlink" x="0px"
	 y="0px" viewBox="0 0 2216 629" style="enable-background:new 0 0 2216 629;" xml:space="preserve">
<g id="logo">
		<path fill="#111" d="M1015.34,140.67c-68.69,14.88-85.8,58.26-109.17,162.37c-7.49,33.37-15.07,70.94-20.78,107.94
			c-6.53-1.6-11.65-6.43-14.66-15.59c-6.93-21.09,3.4-78.48,17.45-137.09c0.26-1.11,15.78-38.51-24.01-28.3
			c-3.8,1.42-9.7,3.9-17.12,13.16c-10.22,12.76-13.77,32.13-13.77,32.13s0.57-15.23,12.24-35.19c5.14-8.79,9.18-14.09,12.35-17.14
			c-3.02-37.73-16.09-76.03-72-83.41c-51.87-6.85-85.4,14.67-108.86,71.37c-25.48,61.6-32.01,146.82-14.48,189.58
			c5.33,12.99,11.39,22.9,18.02,30.18c5.26,5.77,23.32,17.45,50.9,15.43c50.43-3.7,68-33.95,67.81-34.31
			c4.84,9.32,10.22,16.61,16.01,22.12c18.87,17.96,42.19,17.12,65.96,6.64c-0.04,0.32-0.08,0.63-0.12,0.95
			c9.27-4.04,18.79-8.93,27.94-15.4c-7.46,8.83-17.91,16.4-28.8,22.52c-6.05,52.03-6.8,99.45,3.67,127.91
			c24.29,66,64.02,60.44,102.34,31.12c0,0,12.15-10.23,10.71-23.3c-0.89-8.08-10.71-2.17-10.71-2.17
			c-12.91,3.94-23.28-0.37-28.14-18.65c-5.77-21.7,0.44-74.54,10.79-133.45c52.38,35.4,107.26,10.72,130.58-24.77
			c39.13-59.56,52.58-171.43,31.61-222.58C1117.89,150.46,1067.53,129.37,1015.34,140.67z M805.95,234.01
			c-13.46,57.46-22.99,119.28-14.29,157.39C665,480.05,766.04,92.9,809.74,190.97c5.77,12.94-3.83,42.84-3.83,42.84
			S805.93,233.89,805.95,234.01z M1057.98,289.69c-5.57,29.81-14.81,59.96-25.33,82.4c-21.04,44.87-40.83,38.42-49.24,37.01
			c-22.66-3.81-17.27-29.17-11.28-42.63c18.92-42.56,49.71-11.9,43.21-45.41c0,0-2.74-11.54-12.3-11.89
			c-1.23,0.7-3.63,0.45-7.31,1.63c-1.32,0.59-2.72,1.32-4.21,2.28c0.04-0.18,0.07-0.36,0.11-0.54c-1.53,0.8-3.2,1.85-5.03,3.25
			c-8.59,6.56-13.17,18-13.17,18s2.03-9.27,12.42-20.06c2.66-2.76,4.93-4.84,6.86-6.4c29.22-141.09,36.7-132.31,49.88-127.35
			C1066.31,188.9,1067.49,238.81,1057.98,289.69z M642.11,406.21c-18.24,8.59-33.63,8.25-39.9-10.82
			c-16.14-49.08,61.29-294.89,61.29-294.89s-4.71-14.96-45.95-18.19c-30.13-2.36-39.09,11.38-39.09,11.38s-3.81,10.69-9.5,28.25
			c-19.55,60.39-61.21,202.04-45.81,269.46c-24.4,17.71-46.89,24.17-54.82-2.59c-16.14-54.51,61.29-327.51,61.29-327.51
			S524.32,47,486.65,43.21c-38.77-3.9-42.07,10.51-42.07,10.51s-75.61,235.34-55.13,331.47c-24.67,20.19-47.55,27.88-55.55-2.2
			c-16.12-60.61,61.2-364.14,61.2-364.14s-5-14.67-41.05-18.14c-18.69-1.79-29.95,1.15-36.38,4.26c-1.02,0.26-1.93,0.59-2.72,0.84
			C212.01,61.52,40.03,169.37,8.46,267.51C-29.15,384.43,61.45,437.24,112.4,457.09c12.96,2.93,15.98-6.08,10.36-16.21
			c-17.04-24.09-38.05-62.4-38.06-104.88c-0.02-86.28,45.23-132.29,105.03-192.7c25.26-25.52,70.99-59.93,109.14-90.91
			c-21.8,84.41-65.24,272.76-39.17,343.61c31.02,84.27,87.21,51.91,133.5,2.32c0.27,0.73,0.53,1.48,0.82,2.19
			c30.87,75.32,86.64,47.05,132.83,2.92c0.34,0.84,0.67,1.69,1.04,2.5c28.55,62.72,78.39,45.66,122.26,11.31
			C658.6,410.63,657.06,399.17,642.11,406.21z M1636.31,403.27c-16.06,7.05-29.31,4.98-35.01-14.54
			c-9.09-31.15,11.51-132.61,31.23-215.3c5.79-24.28-38.38-52.33-83.21-18.26c-18.37,13.96-31.06,22.4-50.18,32.35
			c1.08-4.61,2.19-9.28,3.34-14.09c7.73-32.42-76.76-48.96-83.68-20.77c-3.95,16.11-7.92,33.26-11.62,50.82
			c-15.74,74.72-26.55,156.79-10.25,197.12c21.17,52.4,54.05,55.36,87.53,37.62c-21-43.39-26.17-72.82,9.9-230.1
			c22.06-5.13,43.85-9.28,42.88-4.64c-0.08,0.39-0.16,0.78-0.25,1.17c-15.6,74.41-26.22,155.82-10.01,195.94
			c27.32,67.61,74.13,52.93,116.56,17.63C1647.03,414.24,1644.18,401.4,1636.31,403.27z M1391.73,410.11
			c-13.64,3.85-24.64,0.67-29.7-14.72c-6.93-21.09,3.4-78.48,17.45-137.09c0.27-1.11,15.78-38.51-24.01-28.3
			c-3.8,1.42-9.7,3.9-17.12,13.16c-10.22,12.76-13.77,32.13-13.77,32.13s0.57-15.23,12.24-35.19c5.14-8.79,9.18-14.09,12.35-17.14
			c-3.02-37.73-16.09-76.03-72-83.41c-51.87-6.85-85.4,14.67-108.86,71.37c-25.48,61.6-32.01,146.82-14.48,189.58
			c5.33,12.99,11.39,22.9,18.02,30.18c5.26,5.77,23.32,17.45,50.9,15.43c50.43-3.7,68-33.95,67.81-34.31
			c4.84,9.32,10.22,16.61,16.01,22.12c26.25,24.97,61.09,13.59,93.79-9.52C1401.89,419.59,1399.56,411.7,1391.73,410.11z
			 M1297.25,234.01c-13.46,57.46-22.99,119.28-14.29,157.39c-126.66,88.64-25.62-298.5,18.08-200.43
			c5.77,12.94-3.83,42.84-3.83,42.84S1297.23,233.89,1297.25,234.01z M1842.64,230.58c-1.82-40.89-12.6-85.35-74.99-92.43
			c-61.91-7.02-87.26,29.07-103.26,64.38c-28.08,61.99-35.87,152.4-17.64,196.88c14.47,35.31,34.81,42.38,56.28,46.67
			C1820.92,469.62,1845.25,265.27,1842.64,230.58z M1800.75,294.81c-1.4-19.08-12.97-42.68-30.6-45.9c-3.26-0.6-11.48,0.01-17,3.4
			c-8.27,5.08-12.91,14.18-5.1,17c3.46,1.51,41.74,0.98,23.09,79.17c-0.02,0.11-0.06,0.28-0.12,0.51c0.04-0.17,0.08-0.34,0.12-0.51
			c0.31-1.44-1.83,6.52-3.4,11.89c-7.35,25.19-17.92,42.73-34.85,40.75c-60.97-7.16,24.01-294.41,61.06-211.25
			c6.12,13.74-1.01,69.31-1.01,69.31s2.63,4.98,6.1,16.93C1801.56,284.72,1800.75,294.81,1800.75,294.81z M2185.12,118.41
			c-6.06-4.95-10.04-1-9.74,5.82c2.64,17.19,3.62,42.91-7.57,65.31c-22.74,45.49-58.76,57.84-106.25,73.96
			c-11.96,4.06-27.91,9.01-44.63,14.02c-7.22-11.03-18.31-17.1-33.38-15.07c-0.61,0.54-0.69,0.56-0.12,0.01
			c0.04-0.01,0.08-0.01,0.12-0.01c8.99-7.93,135.51-128.66,93.3-225.92c-21.4-49.31-99.96-35.23-101.66-34.88
			c-43.76,8.95-63.67,30.35-79.15,74.39c-23.2,66.04-76.15,278.06-50.38,331.05c14.47,29.75,34.81,35.71,56.28,39.32
			c92.57,15.58,135.23-90.13,123.1-148.12c63.17-6.61,134.28-21.28,164.95-52.58C2240.67,193.95,2206.78,142.27,2185.12,118.41z
			 M1999.1,34.23c13.94,4.96,19.02,25.14,18.35,50.6c-1.43,54.21-25.56,103.72-53.01,144.66c-9.96,14.85-25.26,33.89-40.64,53.62
			C1934.49,230.79,1976.27,26.11,1999.1,34.23z M1979.28,318c0,0.15,0,0.29,0,0.44c-7.5,44.6-23.69,92.03-47.48,90.09
			c-16.88-1.38-22.58-20.99-21.23-47.15c0.01-0.21,0.02-0.47,0.04-0.77c-0.01,0.26-0.02,0.51-0.04,0.77
			c-0.24,6.37,3.76-29.56,5.5-39c17.54-14.49,36.36-30.78,54.87-48.06c0.42,0.27,0.89,0.54,1.44,0.79
			c4.95,5.47,7.08,9.47,7.95,13.16c-5.57,1.61-10.96,3.16-16.03,4.6c-1.02,0.29-7.77,2.32-9.48,3.38c-3.12,1.95-6.17,5.05-6.17,9.62
			c0,6.1,4.95,11.05,11.05,11.05s11.05-4.95,11.05-11.05c0-1.23-0.21-2.41-0.58-3.52c3.38-0.15,6.85-0.33,10.39-0.53
			C1979.98,311.89,1979.29,311.42,1979.28,318z"/>
	</g>
</svg>