<?xml version="1.0" encoding="utf-8"?>
<!DOCTYPE svg PUBLIC "-//W3C//DTD SVG 1.1//EN" "http://www.w3.org/Graphics/SVG/1.1/DTD/svg11.dtd">
<svg version="1.1" id="phone" xmlns="http://www.w3.org/2000/svg" xmlns:xlink="http://www.w3.org/1999/xlink" x="0px" y="0px" width="80px" height="80px" viewBox="0 0 80 80" xml:space="preserve">
    <g id="phone-out">
        <path fill="#099" d="M41.312,41.681l21.723-21.663V29.5c0,1.46,1.187,2.645,2.651,2.645s2.651-1.185,2.651-2.645V13.634
			c0-0.01-0.003-0.018-0.003-0.027c-0.002-0.165-0.017-0.33-0.049-0.491c-0.016-0.074-0.044-0.143-0.064-0.215
			c-0.027-0.094-0.049-0.188-0.087-0.279c-0.034-0.08-0.08-0.153-0.12-0.229c-0.042-0.076-0.075-0.155-0.125-0.228
			c-0.079-0.118-0.173-0.227-0.27-0.33c-0.021-0.023-0.037-0.05-0.059-0.071c-0.021-0.021-0.045-0.033-0.066-0.054
			c-0.105-0.1-0.217-0.193-0.338-0.275c-0.071-0.047-0.149-0.081-0.225-0.121c-0.077-0.041-0.15-0.088-0.232-0.122
			c-0.092-0.038-0.188-0.061-0.282-0.087c-0.071-0.021-0.14-0.048-0.213-0.063c-0.171-0.035-0.345-0.053-0.519-0.053H49.777
			c-1.465,0-2.652,1.185-2.652,2.645s1.188,2.645,2.652,2.645h9.507L37.563,37.942c-1.036,1.032-1.036,2.707,0,3.738
			C38.598,42.714,40.277,42.714,41.312,41.681z M64.988,56.339c-4.49-0.408-8.854-1.619-12.982-3.416l-7.459,4.989
			c-10.171-3.987-18.293-12.045-22.369-22.177l4.985-7.466c-1.887-4.238-3.156-8.731-3.577-13.359
			c-0.116-1.275-0.165-2.528-0.155-3.76H11.743C11.264,13.911,11,16.745,11,19.644c0,27.262,22.085,49.361,49.329,49.361
			c2.96,0,5.854-0.276,8.671-0.776V56.49C67.688,56.51,66.35,56.463,64.988,56.339z" />

    </g>
</svg>
