<?xml version="1.0" encoding="utf-8"?>
<!DOCTYPE svg PUBLIC "-//W3C//DTD SVG 1.1//EN" "http://www.w3.org/Graphics/SVG/1.1/DTD/svg11.dtd">
<svg version="1.1" xmlns="http://www.w3.org/2000/svg" xmlns:xlink="http://www.w3.org/1999/xlink" x="0px" y="0px" width="64px"
	 height="64px" viewBox="0 0 64 64" xml:space="preserve">
<g id="viber">
		<path fill-rule="evenodd" clip-rule="evenodd" fill="#7D51A0" d="M31.837,19.055c0.505,0.023,1.007,0.079,1.51,0.134
				c4.317,0.483,8.148,3.814,9.143,8.035c0.267,1.139,0.432,2.305,0.495,3.474c0.005,0.103,0.018,0.404,0.231,0.637
				c0.154,0.172,0.357,0.236,0.485,0.266c0.094-0.024,0.229-0.073,0.344-0.184c0.258-0.245,0.255-0.626,0.25-0.836
				c-0.024-1.046-0.11-1.555-0.162-1.984c-0.74-6.433-5.907-10.677-11.887-10.838c-0.177-0.005-0.377,0.008-0.377,0.008
				c-0.233,0.021-0.35,0.03-0.479,0.094c-0.051,0.025-0.333,0.165-0.406,0.476c-0.01,0.047-0.058,0.243,0.039,0.412
				C31.156,18.976,31.496,19.039,31.837,19.055z M39.854,29.72c0.007,0.062,0.065,0.207,0.195,0.34
				c0.099,0.104,0.214,0.162,0.305,0.197c0.084,0.001,0.272-0.009,0.449-0.137c0.145-0.105,0.209-0.238,0.263-0.358
				c0.133-0.294,0.138-0.579,0.118-0.771c-0.074-0.845-0.302-2.224-1.098-3.704c-0.66-1.229-1.416-1.985-1.598-2.162
				c0,0-2.086-2.04-5.61-2.218c-0.128-0.006-0.393-0.016-0.603,0.155c-0.149,0.12-0.215,0.286-0.245,0.396
				c0.006,0.143,0.043,0.334,0.177,0.489c0.142,0.164,0.33,0.216,0.568,0.278c0.304,0.08,0.547,0.081,0.557,0.084
				c2.034,0.344,3.823,1.111,5.088,2.846C39.416,26.522,39.667,28.103,39.854,29.72z M33.72,24.209
				c-0.042,0.009-0.582,0.138-0.719,0.582c-0.02,0.06-0.081,0.252,0.01,0.423c0.117,0.224,0.444,0.292,0.78,0.34
				c0.84,0.122,1.414,0.319,1.828,0.693c0.665,0.599,0.955,1.897,1.001,2.303c0.011,0.088,0.037,0.355,0.233,0.55
				c0.133,0.131,0.295,0.183,0.41,0.205c0.101-0.012,0.263-0.045,0.405-0.165c0.049-0.04,0.24-0.213,0.274-0.683
				c0.018-0.261,0.034-1.225-0.532-2.145C36.363,24.611,34.075,24.26,33.72,24.209z M38.813,34.842
				c-1.001-0.635-2.214-0.237-2.963,0.7c-0.276,0.346-0.488,0.81-0.847,1.014c-0.479,0.272-1.163,0.61-1.604,0.459
				c-3.772-1.296-6.479-3.74-7.776-7.606c-0.296-0.882-0.013-1.546,0.657-2.104c0.27-0.223,0.557-0.423,0.825-0.646
				c1.159-0.966,1.441-1.69,0.651-2.974c-1.059-1.718-2.289-3.344-3.578-4.898c-0.777-0.935-1.906-0.942-2.932-0.276
				c-0.611,0.396-1.214,0.814-1.776,1.275c-1.72,1.411-1.938,2.227-1.216,4.323c0.082,0.24,0.161,0.482,0.258,0.717
				c3.859,9.345,10.55,15.821,19.878,19.628c1.135,0.464,2.278,0.376,3.149-0.375c1.017-0.877,1.843-1.977,2.702-3.021
				c0.221-0.268,0.24-0.694,0.397-1.19c-0.193-0.427-0.279-1.061-0.643-1.338C42.317,37.237,40.602,35.979,38.813,34.842z
				 M56.15,30.975c0-25.354-14.14-24.063-24.064-24.063C7.437,6.911,7.85,19.522,7.85,31.147c0,14.27,4.479,20.099,10.164,22.469
				l-0.567,7.685c0.121,0.646,0.611,1.097,1.095,1.006l7.378-7.148c2.066,0.099,4.107,0.053,5.995,0.053
				C56.563,55.211,56.15,42.6,56.15,30.975z M31.928,51.914c-1.631,0-3.396,0.041-5.182-0.052l-6.583,6.475
				c-0.324,0.061-0.652-0.241-0.733-0.674l0.533-7.214c-4.638-2.068-8.249-7.005-8.249-18.748c0-9.765-0.348-20.358,20.358-20.358
				c8.337,0,20.214-1.084,20.214,20.213C52.286,41.321,52.634,51.914,31.928,51.914z"/>
</g>
</svg>