<?xml version="1.0" encoding="utf-8"?>
<!DOCTYPE svg PUBLIC "-//W3C//DTD SVG 1.1//EN" "http://www.w3.org/Graphics/SVG/1.1/DTD/svg11.dtd">
<svg version="1.1" xmlns="http://www.w3.org/2000/svg" xmlns:xlink="http://www.w3.org/1999/xlink" x="0px" y="0px" width="64px"
	 height="64px" viewBox="0 0 64 64" xml:space="preserve">
<g id="whatsapp">
		<path fill-rule="evenodd" clip-rule="evenodd" fill="#3DE35B" d="M32.479,5C17.84,5,5.96,16.76,6.021,31.34
				c0,4.921,1.379,9.599,3.78,13.559L5,59l14.641-4.741c3.839,2.102,8.22,3.302,12.839,3.302C47.119,57.561,59,45.801,59,31.28
				S47.119,5,32.479,5z M32.541,53.421c-4.501,0-8.701-1.321-12.241-3.66l-8.58,2.7l2.761-8.222c-2.7-3.659-4.261-8.1-4.261-12.959
				c0-12.181,9.96-22.08,22.26-22.08c12.301,0,22.32,9.841,22.32,22.08S44.78,53.421,32.541,53.421z M44.599,36.562
				c-0.659-0.301-3.84-1.861-4.438-2.102c-0.602-0.24-1.021-0.301-1.442,0.301c-0.417,0.659-1.678,2.099-2.038,2.518
				c-0.361,0.422-0.781,0.48-1.379,0.183c-0.662-0.301-2.761-1.021-5.222-3.183c-1.921-1.679-3.24-3.838-3.6-4.438
				c-0.36-0.661-0.062-1.021,0.3-1.321c0.3-0.299,0.659-0.779,0.96-1.139c0.3-0.36,0.419-0.661,0.659-1.081s0.12-0.779-0.06-1.14
				c-0.181-0.301-1.439-3.48-1.979-4.8c-0.541-1.261-1.08-1.08-1.44-1.08c-0.359,0-0.841-0.061-1.26-0.061
				c-0.421,0-1.141,0.181-1.74,0.78c-0.6,0.659-2.279,2.221-2.279,5.4s2.34,6.239,2.639,6.66c0.301,0.419,4.501,7.138,11.103,9.719
				c6.597,2.582,6.597,1.74,7.799,1.622c1.197-0.121,3.84-1.562,4.38-3.062c0.48-1.439,0.48-2.7,0.298-3
				C45.68,37.1,45.26,36.92,44.599,36.562z"/>
</g>
</svg>