<?xml version="1.0" encoding="UTF-8" standalone="no"?>
<svg width="100px" height="50px" viewBox="0 0 20 10" version="1.1"
   xmlns:inkscape="http://www.inkscape.org/namespaces/inkscape"
   xmlns:sodipodi="http://sodipodi.sourceforge.net/DTD/sodipodi-0.dtd" xmlns:xlink="http://www.w3.org/1999/xlink"
   xmlns="http://www.w3.org/2000/svg" xmlns:svg="http://www.w3.org/2000/svg">
   <sodipodi:namedview id="namedview7" pagecolor="#ffffff" bordercolor="#666666" borderopacity="1.0" showgrid="false" />
   <defs id="defs2">
      <radialGradient id="main-gradient" cx="42.688049" cy="34.55788" r="20.140033" fx="42.688049" fy="34.55788"
         gradientTransform="matrix(1.4390481,-0.47858014,0.21722903,0.65318847,-4.1989291,20.644138)"
         gradientUnits="userSpaceOnUse">
         <stop offset="0%" style="stop-color: rgb(50,50,50); stop-opacity: 1" id="stop9" />
         <stop offset="100%" style="stop-color: rgb(100,100,100); stop-opacity: 1" id="stop11" />
      </radialGradient>
      <radialGradient id="shady-gradient" cx="50%" cy="50%" r="50%" fx="50%" fy="50%">
         <stop offset="0.98713928" style="stop-color: rgb(130,130,130); stop-opacity: .2" id="stop14" />
         <stop offset="0.98713928" style="stop-color:#000000;stop-opacity:0" id="stop16" />
      </radialGradient>
      <linearGradient id="btn-gradient" x1="54.947998" y1="0" x2="54.947998" y2="40" gradientUnits="userSpaceOnUse">
         <stop offset="0%" style="stop-color: rgb(80,80,80); stop-opacity:1" id="stop19" />
         <stop offset="100%" style="stop-color: rgb(10,10,10); stop-opacity:1" id="stop21" />
      </linearGradient>
      <radialGradient id="main-gradient-2" cx="42.688049" cy="34.557884" r="20.140034" fx="42.688049" fy="34.557884"
         gradientTransform="matrix(-3.4941363,0.7458911,-0.11510573,-0.53921433,217.87388,9.5807658)"
         gradientUnits="userSpaceOnUse" fr="0" spreadMethod="pad">
         <stop offset="0%" style="stop-color: rgb(50,50,50); stop-opacity: 1" id="stop9-2" />
         <stop offset="100%" style="stop-color: rgb(100,100,100); stop-opacity: 1" id="stop11-5" />
      </radialGradient>
      <linearGradient inkscape:collect="always" xlink:href="#shady-gradient" id="linearGradient5314"
         gradientUnits="userSpaceOnUse" x1="62.656399" y1="28.850153" x2="31.546385" y2="57.563007"
         gradientTransform="translate(-178.71823,-312.86546)" />
      <filter inkscape:collect="always" style="color-interpolation-filters:sRGB" id="filter5316" x="-0.019084196"
         y="-0.043891711" width="1.0381684" height="1.0877834">
         <feGaussianBlur inkscape:collect="always" stdDeviation="0.48574361" id="feGaussianBlur5318" />
      </filter>
   </defs>
   <g inkscape:label="Layer 1" inkscape:groupmode="layer" id="layer1">
      <g id="g59" transform="matrix(0.26458333,0,0,0.26458333,65.999595,68.046459)">
         <g id="b-back" transform="translate(-243.95184,-265.16505)">
            <path fill-rule="evenodd" clip-rule="evenodd" fill="url(#main-gradient)"
               d="M 25.084,12.691 C 9.243,8.822 1.57,14.368 1.57,14.368 c 0,0 3.57,-1.57 12.607,-0.009 12.335,2.132 14.648,3.201 32.067,10.893 2.329,1.028 4.534,1.756 6.587,2.263 -6.207,2.135 -10.419,5.342 -15.544,7.656 -6.099,2.754 -9.197,2.371 -9.197,2.371 0,0 4.622,1.613 12.47,-2.208 9.298,-4.526 11.56,-5.646 16.718,-7.012 1.394357,-0.252826 3.386928,-0.40489 5.378397,0.528153 0,0 -0.844702,-1.338222 -4.051397,-2.803653 C 45.431913,21.315523 35.492436,15.312268 25.084,12.691 Z"
               id="path29" sodipodi:nodetypes="cccccccccscc" style="fill:url(#main-gradient);fill-opacity:1" />

         </g>
         <g id="b-back-7" transform="rotate(-12.877738,56.278,37.182932)">
            <path fill-rule="evenodd" clip-rule="evenodd" fill="url(#main-gradient)"
               d="m -153.63423,-300.17446 c -15.841,-3.869 -23.514,1.677 -23.514,1.677 0,0 3.57,-1.57 12.607,-0.009 12.335,2.132 14.648,3.201 32.06699,10.893 2.329,1.028 4.534,1.756 6.587,2.263 -6.207,2.135 -10.419,5.342 -15.54399,7.656 -6.099,2.754 -9.197,2.371 -9.197,2.371 0,0 4.622,1.613 12.46999,-2.208 9.298,-4.526 11.56,-5.646 16.718,-7.012 1.39436,-0.25282 3.38693,-0.40489 5.3784,0.52816 0,0 -0.8447,-1.33823 -4.0514,-2.80366 -13.17308,-4.73097 -23.11256,-10.73423 -33.52099,-13.3555 z"
               id="path29-9" sodipodi:nodetypes="cccccccccscc"
               style="opacity:0.5;fill:url(#linearGradient5314);fill-opacity:1;stroke-width:1.00157;stroke-miterlimit:4;stroke-dasharray:none;filter:url(#filter5316)" />
         </g>
      </g>
   </g>
</svg>
