<?xml version="1.0" encoding="utf-8"?>
<!DOCTYPE svg PUBLIC "-//W3C//DTD SVG 1.1//EN" "http://www.w3.org/Graphics/SVG/1.1/DTD/svg11.dtd">
<svg version="1.1" xmlns="http://www.w3.org/2000/svg" xmlns:xlink="http://www.w3.org/1999/xlink" x="0px" y="0px" width="150px"
	 height="50px" viewBox="0 0 150 50" enable-background="new 0 0 150 50" xml:space="preserve">
	<defs>
		<radialGradient id="main-gradient" cx="50%" cy="50%" r="50%" fx="50%" fy="50%">
		  <stop offset="0%" style="stop-color: rgb(50,50,50); stop-opacity: 1" />
		  <stop offset="100%" style="stop-color: rgb(100,100,100); stop-opacity: 1" />
		</radialGradient>
		<radialGradient id="shady-gradient" cx="50%" cy="50%" r="50%" fx="50%" fy="50%">
		  <stop offset="10%" style="stop-color: rgb(130,130,130); stop-opacity: .2" />
		  <stop offset="90%" style="stop-color: transparent; stop-opacity: 0" />
		</radialGradient>
		<linearGradient id="btn-gradient" x1="0%" y1="0%" x2="0%" y2="100%">
		  <stop offset="0%" style="stop-color: rgb(80,80,80); stop-opacity:1" />
		  <stop offset="100%" style="stop-color: rgb(10,10,10); stop-opacity:1" />
    	</linearGradient>
  	</defs>
	<g id="shady">
		<path fill="url(#shady-gradient)" d="M126.246,20.003c-9.668-0.215-16.642,2.049-24.004,3.532
			c2.501-6.55-3.722-12.814-10.883-10.141c-0.224,0.083-0.432,0.174-0.636,0.267C87.062,8.999,81.378,6,74.989,6
			c-6.385,0-12.066,2.996-15.729,7.654c-0.199-0.09-0.401-0.179-0.619-0.26c-7.178-2.681-13.414,3.62-10.867,10.186
			c-7.445-1.481-14.462-3.795-24.229-3.577C7.243,20.366,1.267,27.709,1.267,27.709s3.042-2.44,12.176-3.271
			c12.466-1.134,14.977-0.699,33.794,2.222c0.931,0.145,1.833,0.251,2.71,0.33c0.407,0.445,0.856,0.886,1.365,1.316
			c0.476,0.402,0.964,0.729,1.458,1.014c-0.101,0.063-0.199,0.122-0.302,0.187c-6.031,3.812-9.385,8.277-13.984,12.043
			c-5.178,4.238-8.27,4.671-8.27,4.671s4.882,0.361,11.474-5.36c7.288-6.326,9.431-8.202,13.446-10.582
			c0.111,0.027,0.224,0.049,0.335,0.072C57.457,39.303,65.438,46,74.989,46c9.55,0,17.53-6.694,19.52-15.646
			c0.121-0.024,0.243-0.048,0.363-0.078c4.018,2.38,6.159,4.256,13.45,10.584c6.592,5.722,11.473,5.359,11.473,5.359
			s-3.092-0.432-8.27-4.671c-4.6-3.766-7.953-8.23-13.984-12.043c-0.104-0.065-0.204-0.125-0.308-0.188
			c0.493-0.285,0.979-0.61,1.454-1.012c0.517-0.437,0.973-0.884,1.385-1.336c0.805-0.077,1.632-0.179,2.482-0.311
			c18.816-2.921,21.328-3.355,33.794-2.222c9.134,0.831,12.176,3.271,12.176,3.271S142.549,20.366,126.246,20.003z M53.752,28.734
			c-0.779-0.282-1.529-0.675-2.242-1.223c-0.186-0.143-0.354-0.291-0.52-0.44c1.431,0.09,2.781,0.096,4.055,0.041
			c0.017,0.3,0.016,0.604,0.046,0.9C54.658,28.231,54.212,28.472,53.752,28.734z M55.069,24.269
			c-0.768-0.477-1.301-1.124-1.59-1.752c-0.506-1.1-0.384-2.258,0.327-3.098c0.973-1.15,2.016-1.045,2.611-0.841
			C55.704,20.363,55.24,22.273,55.069,24.269z M56.525,18.306c-4.294-1.958-6.109,3.849-2.938,6.182
			c-0.224-0.024-0.436-0.04-0.664-0.067c-1.347-0.161-2.656-0.373-3.95-0.612c-1.415-5.469,4.647-12.007,9.658-9.608
			c0.057,0.027,0.096,0.06,0.151,0.087C57.885,15.527,57.123,16.873,56.525,18.306z M93.563,18.585
			c0.593-0.208,1.647-0.329,2.63,0.834c0.711,0.84,0.833,1.998,0.327,3.098c-0.291,0.634-0.832,1.286-1.609,1.764
			C94.741,22.283,94.277,20.371,93.563,18.585z M98.49,27.512c-0.71,0.547-1.46,0.938-2.236,1.221
			c-0.469-0.268-0.924-0.513-1.364-0.734c0.029-0.289,0.027-0.586,0.044-0.879c1.287,0.049,2.653,0.034,4.098-0.066
			C98.86,27.209,98.684,27.363,98.49,27.512z M101.037,23.767c-1.365,0.256-2.747,0.482-4.169,0.653
			c-0.146,0.017-0.279,0.026-0.422,0.042c3.13-2.352,1.303-8.123-2.989-6.147c-0.597-1.433-1.357-2.778-2.255-4.02
			c0.061-0.03,0.104-0.065,0.166-0.096C96.367,11.807,102.411,18.306,101.037,23.767z"/>
	</g>
	<g id="b-back">
		<path fill-rule="evenodd" clip-rule="evenodd" fill="url(#main-gradient)" d="M49.587,23.379c-7.652-3.514-14.084-8.144-24.503-10.688
				C9.243,8.822,1.57,14.368,1.57,14.368s3.57-1.57,12.607-0.009c12.335,2.132,14.648,3.201,32.067,10.893
				c2.329,1.028,4.534,1.756,6.587,2.263c-6.207,2.135-10.419,5.342-15.544,7.656c-6.099,2.754-9.197,2.371-9.197,2.371
				s4.622,1.613,12.47-2.208c9.298-4.526,11.56-5.646,16.718-7.012c0.62,0.071,1.211,0.117,1.787,0.152
				c-0.428-0.8-0.795-1.636-1.1-2.501c-0.545,0.033-1.084,0.043-1.61,0.011c-1.261-0.386-2.601-0.849-4.037-1.424
				c-0.325-0.13-0.641-0.268-0.959-0.402c-6.885-5.419,0.97-16.23,7.194-13.25c0.243,0.116,0.432,0.247,0.646,0.372
				c0.132-0.239,0.27-0.475,0.412-0.707c-0.324-0.167-0.667-0.328-1.049-0.471C50.254,7,43.204,15.931,49.587,23.379z M92.868,21.65
				c-0.014,0.154-0.031,0.308-0.049,0.461c7.654,0.296,5.907-10.071,0.166-6.896c-0.216,0.119-0.407,0.263-0.574,0.42
				c0.027,0.11,0.052,0.222,0.077,0.333c0.175-0.192,0.378-0.374,0.629-0.514c0.39-0.215,1.753-0.801,2.998,0.672
				c0.711,0.84,0.833,1.999,0.327,3.099C95.949,20.296,94.762,21.429,92.868,21.65z M56.727,15.455
				c0.271,0.15,0.486,0.35,0.668,0.562c0.026-0.114,0.051-0.229,0.079-0.343c-0.175-0.172-0.381-0.329-0.614-0.458
				c-5.754-3.183-7.496,7.236,0.215,6.895c-0.018-0.152-0.035-0.304-0.049-0.456c-1.921-0.208-3.127-1.349-3.624-2.429
				c-0.506-1.1-0.384-2.259,0.327-3.099C54.975,14.654,56.338,15.24,56.727,15.455z M124.708,12.691
				c-10.382,2.535-16.804,7.141-24.419,10.649c6.326-7.44-0.713-16.336-9.008-13.238c-0.368,0.138-0.698,0.291-1.013,0.451
				c0.144,0.231,0.28,0.467,0.413,0.705c0.203-0.117,0.38-0.241,0.608-0.351c6.209-2.973,14.036,7.773,7.247,13.207
				c-0.354,0.149-0.704,0.301-1.063,0.445c-1.445,0.579-2.792,1.043-4.058,1.43c-0.488,0.026-0.986,0.016-1.49-0.013
				c-0.303,0.862-0.669,1.695-1.095,2.491c0.59-0.037,1.195-0.087,1.831-0.163c5.204,1.374,7.446,2.484,16.783,7.029
				c7.848,3.821,12.47,2.208,12.47,2.208s-3.099,0.383-9.197-2.371c-5.15-2.326-9.381-5.553-15.639-7.688
				c2.019-0.506,4.183-1.224,6.467-2.232c17.42-7.691,19.733-8.761,32.067-10.893c9.038-1.562,12.608,0.009,12.608,0.009
				S140.549,8.822,124.708,12.691z"/>
	</g>
	<g id="button">
		<circle fill-rule="evenodd" clip-rule="evenodd" fill="url(#btn-gradient)" cx="74.948" cy="20" r="20"/>
	</g>
	<g id="arrow">
		<path fill-rule="evenodd" clip-rule="evenodd" fill="#fff" d="M84.857,23.709l-9.899-12.814l-9.899,12.814
				c-5.805,6.194,9.899-3.002,9.899-3.002S90.661,29.903,84.857,23.709z"/>
	</g>
</svg>